<mxfile host="Electron" modified="2024-07-03T21:25:41.791Z" agent="Mozilla/5.0 (X11; Linux x86_64) AppleWebKit/537.36 (KHTML, like Gecko) draw.io/24.5.3 Chrome/124.0.6367.207 Electron/30.0.6 Safari/537.36" etag="j2vi4I5PyP6mlpH9dASP" version="24.5.3" type="device">
  <diagram id="C5RBs43oDa-KdzZeNtuy" name="Page-1">
    <mxGraphModel dx="688" dy="598" grid="1" gridSize="10" guides="1" tooltips="1" connect="1" arrows="1" fold="1" page="1" pageScale="1" pageWidth="827" pageHeight="1169" math="0" shadow="0">
      <root>
        <mxCell id="WIyWlLk6GJQsqaUBKTNV-0" />
        <mxCell id="WIyWlLk6GJQsqaUBKTNV-1" parent="WIyWlLk6GJQsqaUBKTNV-0" />
        <mxCell id="-FDXGP4P0EIhyj0UecU3-2" value="CLEANING" style="shape=process;whiteSpace=wrap;html=1;backgroundOutline=1;fillColor=#e51400;fontColor=#ffffff;strokeColor=#B20000;gradientColor=none;strokeWidth=4;" parent="WIyWlLk6GJQsqaUBKTNV-1" vertex="1">
          <mxGeometry x="170" y="280" width="120" height="60" as="geometry" />
        </mxCell>
        <mxCell id="-FDXGP4P0EIhyj0UecU3-3" value="CLEANING" style="shape=process;whiteSpace=wrap;html=1;backgroundOutline=1;fillColor=#f5f5f5;gradientColor=none;strokeColor=#666666;strokeWidth=4;fontColor=#000000;" parent="WIyWlLk6GJQsqaUBKTNV-1" vertex="1">
          <mxGeometry x="370" y="280" width="120" height="60" as="geometry" />
        </mxCell>
        <mxCell id="-FDXGP4P0EIhyj0UecU3-4" value="" style="endArrow=classic;html=1;rounded=0;entryX=0.5;entryY=0;entryDx=0;entryDy=0;exitX=0.5;exitY=1;exitDx=0;exitDy=0;exitPerimeter=0;strokeColor=#2D7600;fillColor=#60a917;" parent="WIyWlLk6GJQsqaUBKTNV-1" target="-FDXGP4P0EIhyj0UecU3-3" edge="1">
          <mxGeometry width="50" height="50" relative="1" as="geometry">
            <mxPoint x="430" y="200" as="sourcePoint" />
            <mxPoint x="380" y="290" as="targetPoint" />
          </mxGeometry>
        </mxCell>
        <mxCell id="-FDXGP4P0EIhyj0UecU3-5" value="" style="endArrow=classic;html=1;rounded=0;entryX=0.5;entryY=0;entryDx=0;entryDy=0;exitX=0.5;exitY=1;exitDx=0;exitDy=0;exitPerimeter=0;strokeColor=#2D7600;fillColor=#60a917;" parent="WIyWlLk6GJQsqaUBKTNV-1" edge="1">
          <mxGeometry width="50" height="50" relative="1" as="geometry">
            <mxPoint x="229.5" y="200" as="sourcePoint" />
            <mxPoint x="229.5" y="280" as="targetPoint" />
          </mxGeometry>
        </mxCell>
        <mxCell id="-FDXGP4P0EIhyj0UecU3-6" value="MERGE" style="shape=process;whiteSpace=wrap;html=1;backgroundOutline=1;fillColor=#f0a30a;fontColor=#000000;strokeColor=#BD7000;strokeWidth=4;" parent="WIyWlLk6GJQsqaUBKTNV-1" vertex="1">
          <mxGeometry x="260" y="400" width="120" height="60" as="geometry" />
        </mxCell>
        <mxCell id="-FDXGP4P0EIhyj0UecU3-7" value="" style="endArrow=classic;html=1;rounded=0;entryX=0.5;entryY=0;entryDx=0;entryDy=0;exitX=0.5;exitY=1;exitDx=0;exitDy=0;strokeColor=#2D7600;fillColor=#60a917;" parent="WIyWlLk6GJQsqaUBKTNV-1" source="-FDXGP4P0EIhyj0UecU3-2" target="-FDXGP4P0EIhyj0UecU3-6" edge="1">
          <mxGeometry width="50" height="50" relative="1" as="geometry">
            <mxPoint x="330" y="340" as="sourcePoint" />
            <mxPoint x="380" y="290" as="targetPoint" />
          </mxGeometry>
        </mxCell>
        <mxCell id="-FDXGP4P0EIhyj0UecU3-10" value="" style="endArrow=classic;html=1;rounded=0;strokeColor=#2D7600;fillColor=#60a917;" parent="WIyWlLk6GJQsqaUBKTNV-1" edge="1">
          <mxGeometry width="50" height="50" relative="1" as="geometry">
            <mxPoint x="430" y="340" as="sourcePoint" />
            <mxPoint x="320" y="400" as="targetPoint" />
          </mxGeometry>
        </mxCell>
        <mxCell id="-FDXGP4P0EIhyj0UecU3-12" value="Signaux Faibles" style="shape=card;whiteSpace=wrap;html=1;fillColor=#e51400;fontColor=#ffffff;strokeColor=#B20000;strokeWidth=4;" parent="WIyWlLk6GJQsqaUBKTNV-1" vertex="1">
          <mxGeometry x="190" y="100" width="80" height="100" as="geometry" />
        </mxCell>
        <mxCell id="-FDXGP4P0EIhyj0UecU3-13" value="BODACC" style="shape=card;whiteSpace=wrap;html=1;fillColor=#f5f5f5;gradientColor=none;strokeColor=#666666;strokeWidth=4;fontColor=#000000;" parent="WIyWlLk6GJQsqaUBKTNV-1" vertex="1">
          <mxGeometry x="390" y="100" width="80" height="100" as="geometry" />
        </mxCell>
        <mxCell id="-FDXGP4P0EIhyj0UecU3-14" value="" style="endArrow=classic;html=1;rounded=0;entryX=0.5;entryY=0;entryDx=0;entryDy=0;exitX=0.5;exitY=1;exitDx=0;exitDy=0;exitPerimeter=0;strokeColor=#2D7600;fillColor=#60a917;" parent="WIyWlLk6GJQsqaUBKTNV-1" edge="1">
          <mxGeometry width="50" height="50" relative="1" as="geometry">
            <mxPoint x="319.5" y="460" as="sourcePoint" />
            <mxPoint x="319.5" y="540" as="targetPoint" />
          </mxGeometry>
        </mxCell>
        <mxCell id="-FDXGP4P0EIhyj0UecU3-15" value="Finance + fermÃ©/ouvert" style="shape=card;whiteSpace=wrap;html=1;fillColor=#f0a30a;strokeColor=#BD7000;strokeWidth=4;fontColor=#000000;" parent="WIyWlLk6GJQsqaUBKTNV-1" vertex="1">
          <mxGeometry x="270" y="540" width="80" height="100" as="geometry" />
        </mxCell>
        <mxCell id="sb2vI8DbrjFq7ElJ1ujY-0" value="" style="shape=image;aspect=fixed;image=data:image/png,iVBORw0KGgoAAAANSUhEUgAAAlcAAAFhCAYAAABd8I+pAAAABGdBTUEAALGPC/xhBQAAACBjSFJNAAB6JgAAgIQAAPoAAACA6AAAdTAAAOpgAAA6mAAAF3CculE8AAAABmJLR0QA/wD/AP+gvaeTAAAAB3RJTUUH6AcCFQEbp3m+4gAAesRJREFUeNrtXQeY1UQXHTqKFMWOKFixYQFUBAVB7Irlt1dsqFhQsYKKiCi9995BunSk9yId6XV36WVhWbbvzp+bnafZbDKZ5OW9fY895/vOp8BLMpnMzD1z584dxu5ozUEQBL3yiod78N7j1vHMzCwORAey0tL5yebteUzhq3hMgStAEPSZDMYBBEEvLFy1LX/6i/F8d9xJqJVoREYmP/VbNx5b7GoYQxCEuAJBMK9Z/pEefMT0zZp9hrcqqqF9v9M9h/DY4hBYIAhxBYJgnrBkzY783RbT+b6DpyBMzpo1wiyeOOgPHluqEowiCEJcgSAYLha9qx1/8ZtJfP32I2SLgbMQSeOn87jSN8IwgiDEFQiCoWShKm147XdH8CXr4rAEmA88WMmzF/G4S26HcQRBiCsQBEPBi+p05X3GreNJyekQHvkIKQtX8P2X3QEDCYIQVyAI+sUCd7bmj30yhu89gF2A+RVpG7bwAxWrw0iCIMQVCILBsmCVNvyj32bx02fSoDDyu8DauJUfvLEWDCUIQlyBIOg5vqpqG/5tlwVIBgr8i/Rd+/iBq++FsQRBiCsQBL0sBX7ZYR5PTcuAogByIPmvhTz23GthMEEQ4goEQTd8rekUnp6RCSUB5EZmFj9c5wUYTBCEuAJBUJV13h/F4xNSICIAW5xo1BQGEwQhrkAQVD10ee8BZFsH5Dj2+qcwmCAIcQWCoBNL3NuBz1i6G8oBkCIrNY0fvKUuDCYIQlyBIOjEpt0W8iycZQM4pWRYv5nHlrgOBhMEIa5AEJSxZoPhPDEJuawAZyS06wVjCYIQVyAIyliyRke+esshqAbAGRkZ/NA9T8JYgiDEFQiCMjbrvhCiAVBbEly7iccULA9jCYIQVyAI2vGm5/rxY/FJUA2AM9LT+bGXG8FQgiDEFQiCsizsgydvhGgAlJA4eAyPLVYRhhIEIa5AELTjrS8MQBb2/JZGISWVZyac5jxT8btncZ4Rd5CfatmZxxa/GkYSBCGuQBCUsf/E9VAb+QwkrE790okfvu8ZfuTxN/ixVz/hJz5uyk82a8NP/dqFJ7TtpZN+E/9FC37k0df4/svvhHEEQYgrEASdWO7hHvzQsUSojfwaPrU3lp/46Hsed1FlGD4QhLgCQdAPNmw5Awoj368RZvH0nXt5fJMWPK7MTTCAIAhxBYKgV177VB8ed/g0xAXwnydr+25+/O0veWxRBKyDIMQVCILKLHhnG/7A+yP59n0noCaA3MjI5MnT5/KDt+LcQBCEuAJB0JGFq7blX3eez88k44gbwCHo/dgJfvzNxjym8JUwiiAIcQWCoBXPu7cD7zt+Pc/EocyA8jphBj/dbRAOaAZBiCsQBM0sUq0tHzb1HwgrwFPAe9L46Ty2VCUYRxCEuAJBkFj87na83wTksgKCQ8q8pXz/pXfAQIIgxBUI4mib5r0W84xMeKwAHwTWguU87oKbYSRBEOIKBPMvn/96Is/A0TaAnwJr0UpkawdBiCsQzJ+85fn+/CCyrwMhQOrSv/n+clVgLEEQ4goE8w/Puac9X7gmFioACBnSNm3lh+5+AgYTBCGuQDA/xFm14c26L+RZ2BkIhHoj4ZkknjxzPj/VohM/UKnWvwYk7pLb+eneQ/mp1j143IW3wqiCIMQVCEY3K78wgJ9KTIHlB8KHjAx+7MUPsw1IwfI8cejYf/8peeocHnvONTCsIAhxBYJRmnbhnvZ83qp9MPZAWEF5sGIKX6UbjyOPvKrnxvoXmZnZmd5hWEEQ4goEo5Hv/TKDZ2RgORAIL4489HL2cuCFt/LUNRtz/XvytLk8phCO0QFBiCsQjDJeWq8bP3T8DCw9EP7g9vWbeeKQsTxt41brVcPYA1gaBEGIKxCMLha8sw3v8ccaWHkgMkOyIK5AEOIKBKON1d8cyhOT0mDFgYjEmZETsSwIghBXIBg9LFS1LYLYgYhFip5wtCoMKwhCXIFg9PDFbyYhpxUQkaA0DHEX3wajCoIQVyAYPbyoTle+bd8JWHEgwoKsMnhi3xGIswJBiCsQjD7+0GMRDDkQWcjM5Kead+Cxxa+GMQVBiCsQjC5WeLwXP5GQDGMORJaw+qUTjCgIQlyBYBSmXqiC1AtA5CF9514eV+YmGFEQhLgCwejj7S8N5GeSkXoBiCykrlirny0IIwqCEFcgGF2pF6q04RPmboclByIvjv3wUb7/yrtgREEQ4goEo4t13h/Jk1MzYMmBiER8459gREEQ4goEo4dFqrXlc1ciYSgQwXFXe2N5bHGkYABBiCsQjBLWbTiKZyJhKBDJ0Nrn0WffgyEFQYgrEIx8Fq7als9ctgfGG4h4JE2cgbMEQRDiCgSxQxAA/ELm8XgEtoMgxBUIRj5/7r0EVhuIGhxv8AWMKQhCXIFgZHPFxgOw2ED0LA1OmgljCoIQVyAYuTy3egeegvQLQDQtDZ6I53EX3gqDCoIQVyAYmbzl+f4cmwSB6FJXmfzY8w1hUEEQ4goEI5O13xvJoa2AaEPigFEwqCAIcQWCkZvfCuIKiDak74nlcWVuhFEFQYgrEIzAI28groBoRFYWP1zzaRhVEIS4AsHIY7XXBiPmCohKnGrdA0YVBCGuQDDyWOGxXpq4groCog9p6zfzmCIVYFhBEOIKBCMvFUNmJsQVEIUrg4ln+MFb68KwgiDEFQhGHvcfOQ1LDUQlTjRqCsMKghBXIBh5XLgmFlYaiEokTZyJg5xBEOIKBCOP/SdugJUGohKZ8ad4XGmkZABBiCsQjDB+1WkerDQQtThS90UYVxDiCsYMBCOLj348BhYaiFqcatUVxhWEuIIxA8HI4o3P9uOnk9JgpYGoRMrilYi7AiGuYMxAMLJY5v5OfO+Bk7DSQHTGXR05xvdfeRcMLAhxBYJg5LCAxnmrYmClgehEVhY/Uu9lGFgQ4goEwchip+F/w0gDUYuT3/0GAwtCXIEgGFl8vdkUWGggapE0YQYMLAhxBYJgZLHyCwNgoYGoRca+OBhYEOIKBMHIYol7O/CTp1NgpYEojWrP5HFlkEwUhLgCQTCCWLhqW754bRyMNBC1Qe2Hqj0GIwtCXIEgGFnsOmo1jDQQtTj2SiMYWRDiCgTByOKbP06FhQaiFvFftoCRBSGuQBCMLFZ5ZTBPTk2HlQbChsTERL57926+evVqPnv2bP7nn3/ysWPH8qlTp/Jly5bp/5aUlKR0r4TW3WFkQYgrEAQjL1P7gaOnYfGBEIVFZfGTJ0/yzZs388mTJ/Nu3brxX375hTdv3pz/9NNPlqR/a9myJe/duzefNWsW37VrFz9z5oy1UOs3EkYWhLgCQTDyuGhNLFQA4CtOnz7NV6xYwYcOHcp///13WyGlQhJbnTp14jt37swtroaOg5EFIa5AEIw8th+6EmoACBqpqam6h2r48OG8RYsWQQkqK44ZMybXM88MnwAjC0JcgSAYeXzl+8lQBoBnpKen6/FTPXr0yLHcR/9PS4C//fYb79y5M+/Zs6dO8kLR3/3666+6CJMtERo5adKk3OJq2HgYWRDiCgTByOMNz/TlmZlZUAmA63iqbdu28V69euniJxAnNX78eL506VJ9Ge/YsWM8LS0t17WZmZl6YPvBgwf5li1b+Ny5c/VrZUuDGzZsyL382H0QjCwIcQWCYOSxVM2OfHfcSagFwFVMFe3y69OnD58xY4Yusk6dOqV7sbyCAtftxFXHjh15Skru0wROtewMIwtCXIEgGHkseGcb/ueCHVAMgDK2bt3KY2NjdQ+UH0hOTuYDBgyw9VqtXbvW8roTnzSDkQUhrkAQjEx+33UBFAOQJ0hISOADBw609VpNmTKFZ2RkWF575LHXYWRBiCsQBCOTD304mmcg7goIM8j71b17d1uP1cSJE+2XGrOy+MEba8PIghBXIAhGJi+u05WfSkyFtQfCAoqfoiB2WcoGElayZceslFQeW6wijCwIcQWCYORyzZZDsPpAyHHo0CHer18/x9QLlHyUgtztkLZlBwwsCHEFgmBks9fYtbD8QMhAqRsoML1Vq1bKiUMpzYOd9yp56hwYWBDiCgTByOZHrWZBAQAhEVWUpoFSN6hmbqcko3SYc3x8vO19k8ZPh4EFIa5AEIxs1mk4CkoA8BXkdSJRpXq+IAWx0+5AEmNOSF29EQYWhLgCQTCyeV39PjwtPROKAPANGzduVD7ehn43b9485dxZWenpPO6S22FkQYgrEAQjl5fV686PnDgDRQD4gjNnzvD+/fsrx1dRSga7fFZ2OPbapzCyIMQVCIIRfAzOfZ34tr3HoQoAT4iLi9OX9AYNGqQfzkyHNqsKK2K7du1cH5+TNGU2jyl8FQwtCHEFgmBkslCVNnzuyn1QCYAn7Nixw9VOQKvUC3QMjqtg+dOJ/ODNdWBoQYgrEAQjly37LoVKADyDcliNGDFCeVegkcOGDfP0zNO9hsLQghBXIAhGLm9/aSCOwQGCAsVN0bE206ZN4z179tTTKqgEtdOSoqcdiScT+IFra8DYghBXIAhGLhevjYNCAHzD6dOn+fLly3nLli2l4mrSpEmen5HYZziPKXQlDC4IcQWCYGTymS/Hw3sF+I49e/boGdq7dOliKa5oOdErspKS+aHqT8HgghBXIAhGJs+7twPfsP0I1ADgO2g3IB1pYyWuhgwZEtS9U+YuwUHOIMQVCIKRyy/az4USAHxFSkoKX7FihW381axZQR6/lJHBj7/TBEYXhLgCQTAyecPTfaEGgKC9VAsXLuSjR4/mgwcP5p07d+Y///xzjozsRNpZSL+h2Kygg+njDvL95arA8IIQVyAIRh4LV23Lpy7aybMQegUEATojcN++fXzLli183bp1/5KOxdm6dSuPiYnRM7n7iaSxU3ls8athfEGIKxAEI4/n39+Zr958CAoBiDKXWQY/0agpjC8IcQWCYGSyRZ8lMNZA1EHP3F75QRhgEOIKBEPNSx/sxl/4ehLvMnI1nzB3O5+3ah+fq3Hywp18wKQN/Kdei/mzX07gVzzcgxdAfem8/um+/MSpZFhrIPoC6Jf+zePK3AQjDEJcgWAoeOWjPXm7ISv5gaOJSoPyyk0Heen7OqHuNBa4szX/sNUsnpGRCWsNRF/MV6uuMMIgxBUI+u2pajVgGT95OsVy4KW/n71irwjTyOT/7D7GP2k9m5e5H8LKyIJV2vBOI/7mWYhuB6JteTA5hR++/zkYYhDiCgT92On2XosZfFdsvO2gu23fCX7vW8P4Xa8N4d1Greb1PhzNz6vREfVnwxL3duDj5myDtQaiDqmrN/C40jfCGIMQVyDolTUaDOeL1sTaz2SzsvjIGZv5hQ90QX25zdyuic/5f8fAWgNRh4T2vXlMwfIwyCDEFQi6NfzNey/miUlptgNsUko6/6nnYl7s7naoM5OnTzl+7bGefNPOo7DWQHQtD54+ww/f9wwMMghxBYKqrPzCAL5kXZx0cD10PJE/+dk4PUAbdZYzYP3j3//iFR7vpXzNrc8P4Efjk2CxgehaHly1nseedz2MMghxBYJSj0u1trzBT9McDf3itXH8puf6o85sWFETVn8t38urvTZE+Zpnvhgv9RICQCTi5Pe/Y3kQhLgCQTueW70D7zZ6jb7Lzw6ZmVl84KSNvuz+K1mzoybQ+vEH3h/JX/xmkp6e4OvO8/kP3RfxH3os4k27L+SftZ2ti72nNeFR+92Rukftsoe6u1p2yyvWbTiKb993gt/39nBljxctsQJANCHzeDw/WLkeDDMIcQWCVnmryNMiywxwKjGVf9L6L0/C5qI6Xfnjn47V0zhMW7yL74qL5wlnUnlKaoZSvicqF4m+lLQMfiY5jccnpOjChZKWDp/2D287eAVv3HYOf+bLCfz2lwbq71NaE4CFqrTJ03p9vdkUPRcYCS2VJKrF72nPpy7aBYsNRBWSZ8znMYWvgnEGIa5AMEDyHm3ZfUw6eB45cUZPreA2vuryh7rryUb3HTzFw5XRKVNTYvEJyXxHzAm+dP1+PkwTX826L+LPfz1Rj206RxMw4apbEnfkhTt2Mkl/vso11zzZmx8+fgYWG4ii6PYsfvSZd2CcQYgrECQ+3OgPXTjJsDMmXl+Oc7vT8PuuC2yTjfoF8nqdTkrjJzQxRe9hfB55u8hrRELr37/j2R4wEl6UY6pZ94X8iU/H8krP9A1ZTi4SpP0nrtef+22XBUo7K9/8caq+BAsA0YK0LTt43AU3w0CDEFdgft7R1ob/76uJjuLn+KlkfZnNzb1veb4/X7g61hdPVUZGlp7uYe+BU3zGkt2866jV/Iv2c/lzTSbyGg2G8TtfHqQvudGS4MA/N/LdcSdzCCkKzKflRyec1n5DIpKW5Jp2W8hrvzuCl9TEFtWTH/Vd9oEufP32I/r7UE4wynQv+z151+Yh/xUQZd6r4299DgMNQlyB+fToFU0wUKqA5NR0eRyF9u8kYtwc6fJasyk5PEWudx5pYu/vfw7yIVM28U/bzOa13xupx2sF4pXK1u6i/d0I/l2XBXzivO087nACD9UJMiQsu41aoz3fn+Sob/ww5d970zLpq00nS71YT3w2Ft4rIKqQumw1DDQIcQXmz+SW33SerweSO6HHH2uUA8LJ09J60HKempahPBDTMhkt5VFQeos+S/hDH43WY7SK390+xw7GG5/tp4vByQt28oPHEqW7GUMByqBeqmbwS4bPNpmQ6/1XbDzA3/xhKr+0XrdcdX3VYz1d1ScA5LnzKimZx5W9BUYahLgC85ewat5rMc9Q8IbEHErQPUZKKRVqdNSXujIVXEjkDaMg81/6LuV1Go7i59/f2fJwaMr51GvsWr5xxxGl3YShRq8xa5V3SZIYfOHrSbrXjY4EIu9U1VcH8zVbD9nen7x9M5fu1gUqpaQgrx0dgA2/FRBV4io1jR+4pgaMNAhxBeYPFqnWlncctkpJqJD4eufn6copFqYv2W17LxJc+4+c5n/M2spf/X4yL/dwd60s7XIsJdI9ajYYru+qo1gtSvkQacthaemZ/PP2cxwFFmVlD8SxkWcqQXsXEk5OS7AAcFaIqzNJyNgOQlyB+UdYUR4o1dikpevj9HxLTvelpTJa0rMCpR7oP3GDnvzT7AGj8tz9xhD+Vcd5es6r2EOhi5vyEyRM56zcxzsMXcU/+m0Wf+yTMfz6p/vmEFy13h0BCwvk35irlWthoEGIK/DsZ9G72umxU6rihWKxVDKKl6rZiU8xJbukHXdTFu3Ug+BL3Nvh39+eX6szv+u1Ifouvz8X7NADxc+GQG2qU/LykXeKROb33Rbyl7/7ExYWyJ9eq/R0fuyVRjDQIMQVeHaTYn3oOJtMF24h2qVXyGHpi/I2dRy+6l/BlpScrj1ntZ6CgYKyaanv4jpd9ezkY/7ayvfsP6kvq+UHZGYhSgrIh8IqLY2f/LEtjy1aEQYahLgCz17S7r2+49e7GiBPnErmFZ/o5Xjv6m8O1XexURwRibFKz/b7V3RVeqYfb957iX6w85oth/iGHUf45t3H9KNqDhw9rXt5kF4AAM4OZBw6yhMHj+GH7n4ChhmEuALP/gOY6XBlN16ULO23lFFd5f5XPdaLf9hqJr/txYH8nOrtdU+VcUcixVSR14zits69t4O+m7D0fZ302KtyD/fQj3e5542hejwW7Yz7tf8yPmL6Zr5sw349+J2SfqZnZMJyAUCkIT2dp++N5Yl9hvOjz73H9196B48pWB5GGYS4As9unlejg36WnlvMXx3j6viXQlXb8Ge/nKALooc/+sPX4Hvynj3w3khdePUet05P3UBxWgAA5F08VdK4afzII6/x2BLXwQiDEFdg/iF5iMbP3aZ7odwg9nACv/qJ3srPIQ/U4Mkb9TgqetZTjceFPCj/glqddW/Xl+3n6nFclOFcJREqAADB4+QPbXlMkatgfEGIKzB/scz9nfiEudtdD5q7YuP1BJeqz6GYKoqlCmDTrqOWiUDDISQDOxBnLN3NzySnwQICQCi8VimpPO7i22B4QYgrMH+RMpovXBPrasCkw5Bp+fCyet2Vn0OB7BQTFQAlx6zRYHievz/FfFG6h/81majHbh3QyohNewDgDzIOHcFSIAhxBeYvVny8F1+56YDjAJmYlMZ/7beUf9L6L95zzFp+/zsjlM8NJN7+4kB+4Gjiv/ejWKu7Xx8SkXVyWb1u/IVvJukerZQoOZuPdlBCEAIR6blKTuFxF9wMwwtCXIH5g9VeG6znkJIOjJrFnjhvB7/h6b6en3PtU334ztj4HPdd9c9B/bDl+p+P5zc91z9H0tCIEp9P9NLLuSsuPjINl/Z9xs3exu99axhftDYWlhyISBx58CUYXhDiCjy7WeDONvrRK4eOJcoHxBNneMOWM/W0CF6fRekUZEuO5GyhzOwk8qYu2sW/67pAj4WKNLFFByi/9eNUvmnnUaWDq8MBOkOxcds5esB+4Wpt+e64k7DiQETidO9hMLwgxBV49pKW8pp0mKtnRbf3hnD9OJZKz/YNOpap9aDlHrwxXPd0/TZgmauYrnCw+N3t+YvfTOIbdxzNO2+Vxr//OajHsAXKdV39PhyrgkDELlsfOc4PXF0dxheEuALPPlIKhIF/bpR6Xii2qnnvxXoi0WCfV+f9kUHtwus3Yb1+JA55sSh7eyTVJZ2NSF6jw8fPhNVI0YaAz9vNyZVTrLH2dwAQyUho3R3GF4S4As8uUvD4um2HpYMf5X6q23CUL0Km2F3tlALlHZcTNLG3cccRPmHedt6812I9kL6ww9mF4SR5jCbN3xFyrxEd/fOT9v6XP5Tbk1fwzjZ81rI9sN5AZHuvjp3gsedeCwMMQlyB0U8yxp2Gr5J6kGgZjnJc0dEyfj337ebTfD0DkHYXTlm4U8+2/sYPUyOqjinmqUmHebrXz08kp6Tr8WrvtZihH/8jC7o/fhIZ6IHIx5HH34ABBiGuwOjmLf/rz3fEnJAOdpQl/feBy/XAc7+eS8t4a7ce9n1gpoOhKT1C47az9fMFKTA/kur7ycbjgl4mpPMc6aBq2qFY5dXB+nE+Ts99/5cZsNpAVOBEo6YwwCDEFRjNZwR21NMdyHD8ZBJ/6ds/fX/2gx+MDvkgTSkI/tl1jLcZtILX+3A0v7BOl4hJ3TB7xV7lHYV0wPTeA6f49CW7+WdtZutpKdw+020CWADIC2QlJfMD19SAAQYhrsDoJR1aLFuWo2371d8cFpJAcRI78Qkp/54dGGqQkIk7nKDHZTX8daYucGipLq/q/px72vNnm0zg4+ds4/s04XTydIpOCkanXX5jZ2/lv/Zfxl9vNoVXfmEAL1u7i76z0suzrq/fh6em4YxEIMKRnsHjv20F4wtCXIHRfU4gGXU7LF0f5+qgZa95oWo0GMaf/Gwsf00TER+3/os37baQ/zZguZ7hfcm6uBCO45m6iPm59xK9DJQ+IS+/BwXgexVPTmw7eAUMNxDZHquUVH7y+995TGEc3AxCXIFRzG+7LLCN55k4f4d+jl6eLFXe20GPlaIjdLbtPR6WgZ28OpQzq8cfa/XlShKeBc6S71zh8V780PFEWG8gQlVVFk/ftosffaoBjyl0JQwvCHEFRi9pxx8tkVmh19i1Yc98TmLm3RbT+cgZm/k/u47m+RIWHWPTe9w6/tCHo/Xlu2j+1l4StAJAOJARd5Cf/O53nCkIQlyBZwetlolI0LTsuzTs+aEog/ju/Scj8kDhjIxMHquJ0A7DVvG73xgalUKLxDKysgMR57BKS+cnPvgW3ioQ4go8O3j1k731pJs5lgIzs/g3nefnSeLNJh3nRaSwMoMC72ln5Rft5+ixYtHyvS+t141v2nUU1hyIPIGVlMxP9xjMD970AAwuCHEFRi8pH9K4OdtyDHDJqem80W+z9Aze4T8cOttzRZnFowmUbLXv+PW8xlvDIioTvN05kZWe7acfeg0AkYjMEyf5wdvqweiCEFdgdPKxT8bkiGdKSc3gH/w6M0+EFaVBaD90JU9ITI1ao0DCdNriXfzBD0bxwtUiR2SRaKW4OsoIv3B1LI9PQGZ2ILKRNPkvHlukAgwvCHEFRhcpSH3DjiM5hEGDn6blWQZzEgC3vTiQv/XjNP3oFirLDz0W6Xmeom7mnZXFF62J5Y80+iPPPVmUzoHq8VQUi1YgP64RZvEjdV+E4QUhrsDoIQmZ77su+DdZJy1r0e68SDsahnjrCwP0IPJoREpaBp+6aBe/85VBIctZ5cTid7fjo2du4enpmTDYQHR5gqfOQYA7CHEFRtH5gc8P0LOhEygw+80fp0aksLry0Z581MzNeoLPaMaZ5HTebdRqflGdrmGtP3ree7/M4AtWx4Ql6z0A+B17deDqe2F8QYgrMPJZ7K52fNayPdlxDSnpvGHLGSE5ziZY0pJazKGEs8pY0HmAb/wwlRe7OzzH7DzVeJweRwcAUem5mj6Xx5a8HsYXhLgCI5/v/jxdz9dEZ+s1+v2vPAled2LNBsOjOrBdBqr3SfN38Guf6hPyeqTlQACIyiX1RSt53CW3w/CCEFdg5JOOkTkan6TvEPy0zeyIFFYX1+3Kt+w5dtYbj2PadyDvXEjirO5pz1/4ehJPNOUvA4CoEFYLlvG4C2+F0QUhrsAoWA68ux3/c8EOPUFos+6L9HxHkVZGCvruP3HDWW040tIz+Iylu3VhFYoM7xQ7N3zaP/z0mVTd+0ebAWj5FwCiQlgtXMH3X34nDC4IcQVGBz9vN0cPDG/RZwkvFIGJLknsfd9toS7+zkYcPn6Gdxm5mt/x0qCwiFQSbiTgKEksdgoC0YDU5Wt43EWVYWxBiCswOnjjs/34qcQUzbj/rWdlj7jUEBpfazpZT11wVs3CUzP4+u1H9CXYcg91D1v+sue/nsiXrI/Td4ICQDQgI/YAP3D9fTC0IMQVGB08TzO281bF8AETN+ixOJFYxoc+HM1Pnk45K4wEpTzYuuc4bzN4Bb/r9SFhSyJKsWqN287hm3Ye5ci6AEQbTv7UHkYWhLgCo4c/9lzEJ87brieTjMTy0a65g0cTo9owUHwTHeL8U6/FvPKLA3XvUTjqjoRb5RcG6Dm0aKMCRBUQrTj+ThMYWRDiCowOkueEzror+0CXiCwfxQZNnLcjKo0BHcszcsZm/s7P0/nNz/XnhaqGb4MAxVO99O2f+rdNRrA6cBYgcdAYHlOwPAwtCHEFRjZL1ujI+4xbxy+p2zViy9ig+bSoiLNKTc/ge/af1D2AX3aYy+94eZC++zLcyVfLP9qT/zZgOT9w9DQyrgNnFTLjT/EDN9wPQwtCXIGRTRIA19XvE5FlI1Hy8nd/6sfCRF7MFNeTrJJnasxfW/knrWfzqq8O5ufX6pyndXZu9Q58486jfOn6/XzIlE16MtLQLXOm8a6jVsPiA2FF/DetYGhBiCsQ9Bon9F3XBXoi07zCoWOJeoJNSk1BgfQ7Yk7wOSv38vZDV/Lnv5rIr36id0QeCVTm/k665+z4qeTQGbiEFP7wR3/wqx7rCWsPhBX6Qc0wtCDEFQi6X6rsOWYtz8jw5nWhHFiUGHP5xgO82+g1erD+35sP6gHltLwoy5FFnh4SVEvWxfFLH+ymi4drnurNyz/SQxctkZitPkBKn/HEp2P5mq2HeGYIlwOPnUzijzYaoz/z2S8nwNoDYUXa+s0wtCDEFQi64RUP9+B/Ld/rfplO4664eN53wnr+jGbwL63XLVdG8ssf6s7veWOoLtyMsUiU52nB6hj+bZf5vN6Ho/nVT/aOyMz0suVTWpKkjO4ZIU6uSrsN67w/8t+8Y4Mnb4S1B8IrrjZvh6EFIa5AUJUkECj3k7KHShNIMYcSeN/x6/kDmsEvdV8n3eDLnlG2dhc9gH/CvO36ETqN283R0xQUvatd1NUXiSpamqT3CMf5gHGHT/P73xnxbx1XfKKXnlEeAMKJlMWrYGhBiCsQVOGzTSbwIyfUDDV5ncjT9HqzKfpSXX6sL3pvWu6kJbpwYNveE/y2FwfmKAMd0wMA4UbikLEwtCDEFQg6Ba5/0vov/aBiJ1BQ+cA/N/K7w5jRPEDybOX1TsBAPNoHv87k+w6cCksyUHrG7BV7ebmHcx7LU7fhqDzdbADkX5z49AcYWhDiCgRly1q/9F3iaKRpZ1q7ISt5pWf76bFT4SwjZVF/t8V0vnhtHN8ZE8+/77qAl7kv/N4ySqT6+Cdj+JotoQ1WN6PHH2t4adP7XvVYL33nJACEG1lp6fzQHQ/D0IIQVyBo57H6bcAyaZLLLbuP8SYd5/Ey93cOe9mqvTZEFxZWy25HTyTxj36bFZZs6yQmq7w6mM9cuiesCUGPxSfxBj9Ny5Vqgg6Wpp2XAJAXSF2+hseecw0MLQhxBYJW/LDVTH2XntUyVMzBBP5Zm9lhX4YjIUGiinYrWiUupfJSAPfASRt4pWf6hjzH1YUPdOEdhq3ip8J4WDXV/+rNh/R6sNrJSclJASDPlgQ/+h5GFoS4AkG7Q5hpqS/38l8y/7n3kjyLbaK8VpQ4lJYpYw8n8BUbD/Bxc7bxNoNW6EuD9741TM+AHo58VXQmIB2lE06QoPx94HJ+Xo2OucpEweybdx+DdQfyDOlbd/LY4vBagRBXIGhJOsQ4h6tfEzOjZ27hN+oxVXlXLsptdcUjPfR8WCTwiuVBeoaL6nTlo7S6sPLqhc5blaXHctV8e7ge22WO9ar/+XjlnZwAEApknkrgh+u8AAMLQlyBoGWeqQe68GUb/ltaovidxz8ZG/ZA9Ugk7YJcu+1wWI0W7cD8vtsCPUeYuTzF72mvHwCdnBK6sx0pW/7arYf5gIkbeNNuC/lnbefwbqNWc5w3HWKxcuwET545nye0783jP/uRH3vtE37s+YY6jzf4gsd/2YIndOrHk8ZN5anLV/OMmP10mGbeBLGnpvLjbzaGcQUhriAiQCve9doQ/s+uo/qASck/P20zm5+jGXAsk/bhs5bt4cmp4TugmpYAh07dpB/tY1WmW18YwBeujg2ZyDl4LFFfgqTYNXMCV9pQQIlhkerBZ5FyJoknjZ/Gjz7VgMeVvpHHFL7SeUAvWJ7HFq3IY0tcx+MuuZ0frvm0Lr4S2vTkSRNn8rRN23jGwcOaAApNEtv0fXH86NNv6+WAcQUhriAkQBOvq99HN6gJZ1J5q/7L9OBo1Es2h0zeFNYlQNp5WLNB7iVAfWm0ahvesOXMkC0D0nJnx+Gr+JWP9rTeVKDx8U/H8lhNfFM5AX+QsTeWH6n3Mo8pdKW/A37hq/j+y+7gh+56XBNdn/OEtr148qwFPPNwcPF5WcnJ/HTvYXz/lXfBqIIgxBVou+T1xlD+zs/T9GVB1EfOVAvktVq0NlbfhfhDj0X6TkmKQfMTtLQ3ZeFOXqPBMNvDpynmbcqiXSEz8LQL8a7Xh0hzipE3a9U/B/XfPdV4HFSRD0iZt5Tvv6JqeA2BJuIOVKzOjz73Pj/1W1eePGMeT9uyg2ccPsqzkpLNa8M8K/EMz9gXx1PmL+PxXzQPf3lBEOIKBM8u0u7AQMwZxTk1675QFxh+eKkoT1fvset4tdcG68+xen7xu9vrebtC5a2iuCo64JmC9e3q4GLt38bP2c7bDVmhn/9IuxP3HjgFZRRcA+BJf/7F486/Oe8NAy0vlrye7y9XlR+4/j5+sHI9fqjqoxof4wdvqcsPXFuTx11UWW2pEgQhrkAQVCFlPW/SYR5fuelgsPZUj2cbPWsLf/m7P/n5kgSsJOgovUQoc1clJafzbzrPt1yCNPKztrP5PW8M1ZcFKTZv/5HTEEfBxtWN+pPHnnc9jBIIQlyBYP4jLcftiot3GbuUwRMSU/mh44l8+Yb9fNCfG/XlRPJQXVC7s+3SXyBZKom53uPW8cQkfwORMzIy9UB08ppRzrD6jcc5CqtAmYhPfz5eT9QKBOmxmjRL9xTBIIEgxBUI5jtSFvblGw/kWkajJKu7407qy4Mzlu7mQ6ds0s9X/Lz9HP6/rybqHqdrnuzNz63ubrfltfX76BsKjsYn+WrPj59M5p1H/M0f/GA0r/7mUP7wR3+42rRAOcY+bDVL93QBwcdYxV1wM4wRCEJcgWD+I3l06mli5O3m03SPTQ1NMN3wTF89NokOS6YAb0pkquL5sSKlOCinCZz73xnBf+23jK/cdICfSfbXU0VH83Qa/re++89rAthzNIHYetAKnp6RCWUU7G7Mf7bz/eWqwBCBIMQVCIJ+kMQU5ad6vdkU3YtEy4XHTyWHzJDPWr6H3/nyoKDKTAJy1IwtPBNZQ4PfOHA8Xg8ShxECQYgrEARdkBJskmfr5uf6694uyq4+YNIGPes9xU9lZIZepNC5iw1+msYLVW0b9FmOdEg24EOYVWoaP/ZKIxggEIS4AkHQbrmQvFAUj0XxS2/9OJW3HbyCT5q/g6/bdlhPsJmUEv7YJBJu4+ds41c/2Tvod7y4btdcsWaAdyT2Gc5jilSAAQJBiCsQBAsIoUHnCr7bYroevzR7xV49FUEkrZSRoKPUDn6cAUnZ+jfuOApF5BPSd+1FADsIQlyBYD71SGnCpGTNjvzm//XnDZpP473GrtUPLaaUBZF6jh4FmZPH7KrHevpSBxWf6MU37zoGReTbB0rnx178EIYHBCGuQDB/LfHd9Fw/PQP6mL+28n0HT+k5oKIBlF6BdjIWrtbWN2G1aSc8Vn4iadJMHlusIgwPCEJcgWBojpCp8HgvXvPt4fzBD0bxB94fyau+Ophf/3RfXv6RHvrSG6U3KOKTUJCRjpO5/aWB/Je+S/UYKb/TH4Qa5EX7QxOCVHd+1Ql9G6oLwM8g9lR+8Na6MDogCHEFgv6ShFPDljP5nJV7NRGTbpWsWt9Fd/BYIt++7wRfsi6OP/HZ2JCU5YJanXUPFaVAiNRlPieQAKIDkwtVbeNbvVzyYDe+ZsshqCG/g9gHjNLP7IPRAUGIKxAMiudrAkZPitl/mZ5+IIWOWlE0RiS+WvRZws+5p72vZbrmqd68zeAV+iHJ0ZSuiY7PoRxTlE29zvsjeb0PR/Nid7fztW7IY7h4bRyUkN85rU6c5Acq1YLBAUGIKxD0FrNES0rknZowdzvfFXdSP7/O1fKJRgocJ1FW8E7/PDJl7u/E2wxawY+ciJ6z8Kgu6GidrqNW81ue7+85+7vq8ujMpXughEKAM0PGwmsFghBXIOgiPYEmgK6v34d/22U+X77hQFAB4ORN+qrjPF7cR28VJfKk3FMxlG8qOZ2fSkyN7A1lmhjds/8kn7xgp5788/z7O4f8G557bwc+csZmqKBQCOS0dH7ozkdgbEAQ4goE1VIVUBD66Jlb+MnTKUELivFzt+s79fwsH6VRmDhvO9974JS+NPnOz9N53JHTITeoGRlZeuLQhDOpPD4hmR86nsh3xsTzNVsP8QWrY/iUhTv58Gn/8B5/rOW/D1jOv+u6gL/XYgZ/7JMx/MZn+/ELanfx1WvnJD57jlmLI21ChOTZi3gsEoaCIMQVCDqx1H2dePuhK3lKavCB4Nv2HucvfDPJl4SXRMpN9cr3k/ngyRv5+u1H+Jcd5uqChcqbHIJM6XRPeofpS3bzDsNW6clF634wSj/yhoLDi/scF+W3sPptwDIIq5AFW2XyY699CkMDghBXICgnnZVHQc/B5n+iAO12Q1bysg908a1s5Pla9c9B/s+uY/yjVrP4FY/04O//MoPHHT7Ng5UP9L6nElP4zth4Pn7Odv5tlwV6UPllD3Xn59XoGNJ4qFDFx9E7pLuMiQNceDD3H+JxZW+BoQFBiCsQlHiFNBExa1lwQc8kcub/HaMfIeNn2WhXYct+S/mrTSfzsrW78P99NZH/rQktrxqQxNTuuJP8z/k7+E89F/MnPxurHwVD5whGf5xca/7BrzOjNgVFtOB090EwMiAIcQWCcoPcZeTfQaUvoPijJh3mhUSgUK4n2qlIuavoLLzMTPWCnj6TynfExOuxUD/3XqIJqXG614tSHYQr9imc3/HV7yfraTGAEAeyV3scRgYE8624urN1HxB04vX1+/Q5k5zWR7Mbnvn35kN9nmsyUb9XoWptfSlXyZod+tz3zog+3Uev7bP3wElX5dm270SfX/os6VOn4eg+Fz7QJV98x2ue6tPnwNHTQX1H0JkZ23b22V+6Up/YgleAIJgPyQAAAAAAAAAAAAAAAAAAAAAAAAAAAAAAAAAAAAAAAAAAAAAAAAAAAAAAAAAAAAAAAAAAAAAAAAAAAAAAAAAAAAAAAAAAAAAAAAAAAAAAAAAAAAAAAAAAAAAAAAAAAAAAAAAAAIA8QCGNH2v8QeODGi/TWADVAgAAAAAA4B4FhLBK1cg1Zmo8oHGAxnNQPQAAAAAAAO7wpsZ0IawC3K7xTlQNAAAAAACAOzyjMcEgqrI0Ttd4BaoGAAAAAADAHWpoPGUQVuS9aqexOKoGAAAAAADAHW7WGGMQVvs1vsSyA9sBAAAAAAAAF6AA9sUGYbVMYyVUCwAAAAAAgHdxNVbjEY0tNZZAlQAAAAAAAAQHiqsqj2oAAAAAAAAAAAAAAEBHYY3naiyl8TxUBwBEHAqJvllBYxWGXZMAAORDlNb4icb2Gnuz7GzSQzSONHGwxh4s+1iPC8Ncxms1fqpxqMaFGndqjNe4Hp8PCAGKaXxV448aO2jsqXGgxkGCQy36hxWpH/UT/Ybu85qYHJyNKKixusYWGmex7F2TgUD/79GkzgqQSL5XY32NDTR+qPELjd9p/EnjLxpbsew0JNTeuwp2E7alj4E9xL8111gRVQucreJqIss+qoNLSEkR94lOUiaM5XtACCmrMq3F5/MVOAMvG3RUzXCWO9t6sJx3loqrAsKgpti89y9oUmcFyrLsDRxJPvYJsjs1UbXA2YqiGr+RDI5ZYvZeOg/K1lDjKo2j2H9ntgU4DJ/OVwNJs9ERGhtrvEu0i/yKwmJmfsZHQ9L6LK0r8lqRN2+FxiUW7/1ylL9fJTHWkEh8iOXvXaH0rZ/VmOxTn6CzNy/D8AtECW4UY93PGh/RWFLlIoqTWG3TARb7OKDUFvc7yLKPB7laoVxFxPM3m8rVBN/aN9Q3zUjTWPa5eJfkc0Myy6I/0CTkOpYdV3Se6GC0VF5OdD5q458JoZFhmKC8cJaL0SKiPxvrisTpbQrXk7eQvF+7NW7Q+JG4X17jFlGmwPvQ9yQP/h35fCJmJaJJcD0tJmaUXJeW+ypovIZln6/5vMZeGo+xnLnhkHAXMILGVApT2qNxq8ZGEdJGbhNlMnpd4zTeo3LxPBtx9bxPhbuJZecEMt57NFNbjiKvWSzL6U2rg3boC2gwPGz6LvSdnkDVsD8s+sMmlr2pQkUw9DUIspvyQX3db6orGnxKKVz3rek6WpJ9JY/f5RKLCR2JxbeE8M7PGGbRL3YojuV3azwtrumFIQYwTWh7WExmH8zjcl3FsmO9PY8FCy06DHmYivlUwNYW96eg9OKKL2eMgaHZz5Voi0HjapNoDXwTZBrPxhiLNjvcpecj0I8K54P6+tBUV38pDqhLLeq5Wx6+x8XCq2Iszy6G+KAARlt8LzdhGn+KaxqgKgEDyKYft2hbP+RhmSqICbV5LKjhRjGut3ipvj4WspvF/acqKr/HWO5g9qJoi0HhIpMBIW/gZIYYiABoFj7Hos1+5uIepcSkYFA+qbN+prr6VeEaEp0rWe5A57fy6B2KG4x/oF/QMth16BL/YkaQ/YJsQRImyIAJtIR82tSuaCn++TwqzwUWNpLCmq51cxNadtvNcgeyP+djQatpPGS4PynUexSvbWYq22C0w6BA8SwTWc4Yq98ZchIZcY4Q8dxUT269F7U1np8P6otE0t+m+npc8dofTcKqP/PPY+4GNGHrLca+wPIkpQ5ATr2c2GJhK6q7uJ7isW5HNQIWY0hvU7sakkdjAU2Mp7GcoQq9vYwF1NhPmDoM/flqnwt8PcvOe9PE5UxwnKlsjfJp4yNX5AIxcwxGCL1nMCC0xPo6Q2CpGeTZ22/RJ85H1ViinGnyRAHOl7sQNc9o/FJjLebeK11R9Aty318axDs0Zf9tQkjQ+D6LjMD6SAIZHXPsLH13eLyzl5Np0kqbwxBa4Q0kpJ4VffExD3aOxoIJYlLkFYWEqAvYSPKmfeB1LLiH5c51tSZCDC4NtOZgsqr5sNFRIwss3f7NglsWfVUYkU35tC5VJwLmXFdLUC22uM80hqxj2d6/cIwPU8UzyaMSTLD52yzbo76JuYipyGegOEJzipLlEKF6GEEvUR+JLDtWBwgvaLz5i6nHe9qBPGhfiQnWZjG2ecYbLPcaes8IMnKnDOU6HaZBO9LwCssZPBpM0k8yQLQD4wL0R1s8ZtEn2ioOspez/BcT2MRUVwPC9Nz/GUTwEB8MJO0SLI3mb4unDDN6N7aCPF7lzuJ6oTQsgdWfWIaVgLzAG+w/z3MnH8YC8saWCbZQVjv53orQzryE5b+t0JRH6R9DHXyLfhRyfGXRJ1RiEB9l2aktauWz+hprqquGYZqpGuN/GqPZhhzfWPSLdxyuKSo8CdPP4noZYaiPWWgmYQfFQhnzUL0dKQWbxnIHKN4QgueQKCrpUtW3NJWtk819ywqlWYr5c5RLISFqrmDZcTYFPLwreYasciIVEfdWzZc00fRtgs1BRc8PBJWWZ3l39A09l5YZKKCZ1skp9QEF1tdmee/5MefyOcOcz0GjOMID4vc3+FA3hQVD+X2Ki75zsfhvMY/92hifRrlpqrh8V/IWXeRi4kTl7GX6Rvf5UOc0U71KlCWv+gX1T9o4QWc1Dhf9gnbYPZbHHhGqj5EWtsIpqeoH4rf9XLaH4jZC7UIW/OpFITE+lxNjfGmPk3a6D8UKGpfE2/lgJ8mWVRbjiJc0LmRnr7S5lt77WqYez0S/u1xxbCgmyl6OeYsLDvTBUi7HsIGmNnm7D229tGgbFwfj0NnHch9LUNKHzkgfloLiG4iXpy3XFD/1nYtGNt1UtrcNH5GWtjqK++4T5aZdj3+KgbaAhwqlZUg66oLiCGKFF2KvxkksOzatgMMMLXCA7WJx3XohYJhoMJ+z7JipGDHr/lUM5FbvTh1gPMudYJE676eiXq938X7ni9k9HVVCsSW0+42CU/8Q7xZOjyC1DQpaPGUxE04TYuuiPDQk60xl2mzR4QuIwZXaIiXQ3CB+e1RROFu1H/KO0RELFBT7j+B60Z4otmiUEBWtRFt6TnR+N/VeXbS72Sw7CzL1nTjxX2qTc1n24bsPKN7zGpYzPu2wwvvT+FJfTJaWillnrPCMOIGC1mkJMMM0oPYSho6M+UMu+n9pcc1fohzHRH1Md3kfP1BSCKoUm37RneXd7kVq52stxiPzhDYwMSAB9Cb7b7nsC8m9zxWTKppcLRTjOB19dolh7PpOPD9W9ItmQmi5aft3izb3t2jvhwX3iHuTB4pWBm5T/Fa/WnyrcWJ8fs+lHaL6/Z9od5Qbj458o7if+RpfYvK4toJivKSlMcpDtkOMQ+8ZvgnZoTbiXU+y7DQDdSzG/YKi3t8Qk8zNojxTLfp1YSEAGwtbFfjtYfH9nJInFxD1WI9lh10sFOXbKerCCZeLMhrHgiTRNugbkAe9rsux4B3xrrvFe9DEcY4ojysbeRHLHcz+lw8zJDpBfRGzPhR6rOI9zmE5d6bQvehojOYatzH5uVVnxAdzUw+dmf0Zi4GP9obN9c8x+yOE6Hw1Wi7abvPv0yxmQ78z5wO1Ax1ZxWi/JwyG3X3ShcEOhyEpIASs0/sFuyvSK8iDE2/x7WcJcTNScKzodPtYzqXr+R76zz1C9GYx92e0qS4TV2PWubvsuFTxvi+byj3TwQjI2qLTGYz1xeDtVPZ1Ct+gsCjLPod+8UWYJh5FWc7lJTsOYnkTGlGWWZ+3uUp41wYJ0TtOjP3mkx9q27SHL8Rk0+pc2yfF2LrHpi5UA5dvF+0yU7HtT3a430Ni8ux0n4OKY9iDLHe+N3NdTLfx6FQSgirR4jpKeHmn8HyetmnfdQ33Ok+McXYHdD9p8H69LZwQGZJyv+PQ3tsIEejl0PdnLdqYFacr2DUStp+x3Em1zfn3mrrpew9aDOjtfOiIHUXD2mTRoHso3uNWixc0fsgE0bk6iY5j3t01VfE5N7GcSVTp/ylx2SMsd/boAxYziKLiI58S72wuxxpDY02wGKDMgdKXCQ/CQYvfpotnHRReB6clwtKiswTKRLPIn4UKX2C6d7gy39/Bch/EbdeYn8oDI1JdsXx27OryeQ+ZBhjyKlLM143Ce2SVwfyYaAM0yXDKvVVIDIRGwRgvPCQUiP6bmLWb+2l/xfJ3NV3XwmESc0K04RgLA/KSw7PGimvNk6BA3zsojJ5TUsuLhcc2MJ4cEl6zmmKSZezDKcLjEWo8oNjuyIP1eB70i3uD6BNk+K0C2suIMTHw/TJN7WG14VufsjD6TgaYDOFbLGfm7/1i8kpt7Wsx4Uhn7jav/E+0mWSLNhzomyQIf3IwxkVEGZIM35aWTylm80dRN1bixogWoo5SbSZnARuSKspmfFdyXlxh8sbNF57B1Rb18rsoV2BCmSXq9i9hj8zPlo3f5cR777NwlmQpeK7G2NjbeNNY4JS66TIhpjMNnncSUc8Ib5xZcyinqGrCQnOSfWnhQixtMTP8RPEe79l0VGpIlD3+eoMipVloTwsh5DR7vdk0K5prWo661GT47PL3kBCsKNzXdrOw7mIJpZpBcaczefCzOcdXR6a+7bk0y7msup/lTPZ3galDUL2GIzVDTxeDct88MCLv2Qi9wHJRnI2BD9DNsR5XmjwxR4QRM7u+zW1K9WzNAqKPp7GcAbfmmLALLfqpSlBoUTF7NV73qIPQu1HMkCubxITqGYxFWc4s4dS3XnQ5NhmP+9ojymI0eNOYu6BtP9DRRb8Ylwfeq09sxjXqD7TMtlh4DK2W+jcw66XigqLurxLj0QmbCXUXMb7eb/DApAqvjKztf2xqYzMtRF4BljMMQMWwB4TIryx3upbzXfTNlgbjnSr6nNFm/Wi6/6cW9ynBss+IJe/3RJv2sk2s5JQRYiwgwiZJ2lElC3HHTZPAHwz1+bSFI+AGh358p/AaVTeJJBKEFRTqsKBp/KFx+mEXbfoC0/V7hC03erTMoUnKY80Ii+WP233skFZi437FawdYfNDdYnZZyGbmZ5z5nGDy2I+LTR4rs4oPYIVJXF3s0OFiLQag3qYyDzd4yUpI7rXVNMjcqlh31OgGGjpRko3R+8X07W8L8QBdSHjyVI3IgjwQV70svt9HwiVfUrCUaNtkFOob2gi1jyouBtf+ikbcbHhfUbx/A5MInGbTJ8qbZvd0jUqi33Img5jgwvtZ1zQrjGNqwbuFTGNKGlNP2kjCaYjh2pM2nj+z0XwhDO1uuot+sYWFP/ZqkKkMqWLlo6QwQlS3gQ0S5Pk3Hh0yQuH+ZVju5fiAJ7iQRT0tYfIlt/+ZhNVUZr2sVoT9txEl0PZV27DZfjZy0fffNkx6ssSKgnn5qr7JG+W0C9dqN+c+U/8obxgTXnZwPJyxEdRTWO5431dMv9vD1NP9vGh6zy1MLUSloMk54iZ5MbXZkSbvt9WmmB89jL16TJP5TMEjPnfaG0wzmRTFCi9qUbbDDsa/qmmwPioZrAuaPCgZNh6H0ixn3FeMw4zxCpZ7DXmXhSDroNAZrze5wXcy9Rw8z5iEZm+LxlrQ5AGg97wkxAN0YfZf4LcKl4fZgBRluQ/tTVeYRd0gBqI4pr7Tpbypbe2U9L2PTGX6WOH+1YR4MAbl22XSrmUa3DZIRL8RD7Lc536q7uT6jLmPH2RC9BkH/WNMfUfVs6YZckuLfkF/Hm0aG24JQ9tb6KJf7GLudlT5MSlaZyrDfofxgtryny7aKy23mOOGtgqxZkQ/0VZlHuLbTH1rn8ToVrIYZ1UN+3aT10R1cnotyxkv9LfN2P6LqT7qOty3rYUQesPC7ieK7yfr47ez3MvU9I49bEStuaxzmXrsqXkyoxqScKVpLNjL1OOGXzPphRY2Y8Eo0/tXVrn5VRYu3MU+d0pznqo1TG2b/TUWs5jPHa550vSsTZLf1jANsgssGkxBkwtVZS3+LosG+bWNcHrRwSi8YLrPJMWGU5blXMOOtTGqD5kE2KQwDdTDXBiRESy8uNCiT+xVND7jhbfQTd9QXQL9wqW4KmPyEFJbr+1ixqt6fMTPzFvyULOAcZOn6n+mPjlH8brzTMbwsI1AqWoSpYtZeDZWjHHRL+ax8GZFL28xaVzJnJcm6wrPpooX1OzJzLLx1NwiPC4FJR6J5SbP5rOS55o3ZAxSrBPzQcMnFUV+QVPbz2LWoSHXspwpTvZaCE3zff80faPtNgKH6sMphUZti3bXT9LuJpp+28qFcJ9luvZNxWvrm2yY6gSNxsfdpomC1cSWQjQSTDpBKV1NPYvK6+Zzp2zFvMXQPGFq8DSzcMrw29T0rNGSRjjJ9NvHLH7TwDSjiRGCVIZXLVznV3isu3amezVXvK6R6bpmFobtXpZzaYUGhiphGqjrMfVdca+HWVzVtCjDHy6EmZus958ytV1/9L2GMPVAUcJ3pjoe4zCLHG8a7F9TfAfzoPiB4nW0lLTFNCNUPfz3N+Y+cz4TM3infETXiEmZsf+GK3j8dcV+kcXCf75qHZZ7V5jKRKIoUz9H1uydPcm8ZchuyHLvKJQJ0Q6m37/nYnKUydyHMFQzeVvmWEyaycu2xOQ9depbtNz/j0eBY9dfzJsSrpLY1N2mNvq04nMuMNki6nM3KV5rzoP5g4ux19jXfrUYc8lDtcOkQVTT0+RaS/Q7sykVcKFHRWoeQGc7zArIcMxgaoHzt5pmHNsNM9OC4sMOMnm2TjC1rNsdLDq218DTJSbj86TiYGY0WrQGfYlpNtSa5dzlctJhZuc3qD5GKhiRlSz8cSVWMQtfh+hZHyuKK/I6Gg9FJg+CLCbkEpPX9wyTb1QoZro/Ld1XVCj/eSZvRobCbNjouTUG2dNyqkq+rkLsv/PDAnxJ4boiwttjFVtaUJSHxsPjpkH+6zC2veLMPiDZSEpzEO4jwL61KEdjn59hjj8c4+Eel7CcKRIyHAxiMZYzBUIqU1z2sXAcqOyyLyAcDEYRYhx7LxXi0JiqJF3YQ6dVi8tZzlUTui6YxLpmGzxVMkEzL9WnMvXDvO9gueOtSnocCx5TuK4Uy+nBNo8FNwmxlWAaQ99zU3lWmdmr+DxYJJoKqLomPd9Utu8dfk8f8rBiJ/ma5V72IcXbRXS0UyZRQ3+nshWbPsxc072/9Fh357GcSxNJigavlsloUT38Imb381nO4GP63utY8JmtveBiIYbt8s5sdTF78RNWxu2hED3rIdOgMtFiAlFItEuz91c20LawGBQLOsykU5n7uIW7TdfFM/XM+q+x3MtcKvEZ5MmINbVvlU0eV7Ocgf0HhHevl+jfJ039gpYJXmbhz4heVngysmw8VgtZeNKlmAXBeIvy1PPxGealPK9HKJmXz5cx+ZLuVSzn6sReJl96M/bLmcx9oHNpk52ib0phEu2FUDhk+vY0eXmXqS0BP8RyB7KXDeKbTDHdT5bg9zlTube5eM4HzNtKwfks57LpaUUvaX2WOxcZjQU9RRtMMH0fim981I2TpBjLnYDrKHOX7dkJ1Vnu3QPFFctm9CyRWHDaYfgyyx0IXdxmoJjN1PKy/CVco6qzxOIWM997gqg7o+csRvHj/qbwbqnCK/Yh85ZJ3C+cIwbQ2ey/bPjrhTi4OA/KU4LlTgxIRveaEBrSXaZZdjODQKHZ2+8msbxLzG5lA85O0zs4eSXNBmmCYvkbWXiXVdGb5c6fo4KbTYM49QuVTP5vKvSLdDHZaOpQx+Foh5Q+428hWGmyt0pM1ErkQXmKmDybAaPj50HMF1lMJt1uIihs8khQGT91KfLnKk4sSpm8S8mKIv8Rppbfj7w3FM/oJqTEvBI1OchvctBkg2WT8DYsd6JbVQw2XfuFR4/Xdqa2yUMl5QmNxWtFWVwLVPNsNbBjwU3gZiHhhrMb3L7y6Oa9y1Rph5l8l1xBk3uQrv1Y0gHjTb+lhtxPeMfeEt6fS5j7gNHbLWYOXnf0fOyhoxQxefzSRUP6XihzWiZ9QszWirHIQWFRT2VY+Jc7jKjKcicF3MHcHwVF/eIGRa9HE4tOvViIjx2mfrBOYQB/1HQNeWgucKh78wxcJW6hAMu9McFNAKs5NuRpxWvfsvBMqNRzD5Y7B94Q8a4fidns1Xnc/qwmaxcIFs/DclS2MD4HfC5TLZY7ELuUh3sY48LOMOeEj2aPXGePIl/VS2TeFTfUMD7Thi3axHSjRxFtTuXxVRDfo4Lp/Y4w+/xdhVnukx8auhgLtpnscQ3Faz9kuTOxq8CcO3KdmNxRwtfGLHvDzHXBtO/PmPfA3QAeFsbILiPzRI8f2xzoO8/h91VMRlEmxsqx3Okdyvo0QHzg48zBHMDcUuGa0iznkgnVSSUGBNMn5jF3RwKR0P9WtKsKih5KpyDmONHxVdppRwsvlMzjeSnLvSu3vsJzyOO5yXTdc4p1RHF/Zte7anxGd5Z795IKzIH3NdDclfE5s84/5+eS6Tc+jJ3mGKjVDn2XbIF5B+SHis8ye0IXK44T5t18r/lUfyREzfkkgwn3eIWpZxEoY/JypTP18CLzWJDiQlgOYt5Olplquq66n52lkGi8bs/1MlfoVmafzZb+3bw8UUvx3qNdzIgLs5xbmJ12VVSx8Ez4BfNM/ieP9zmX5c4po2K4LmE540pSxCwIUBNFUy36RA+X9wkkLtzM5EuugSSCgfi+kyw79ocmOLQLq70Qe/cxd0u35qNymjr83rwsks7UljfI+5lm8hKoCvmXTIJyl+J1VGermHPGaiuYheA1aPLKtmIusz7f0E+Y7VEzH8rp5IX60GJi85ji87oxb7vszefPNvap/swOBlpWLRnE/cynaMh25N5u+i1N8FXDOp43fYOVLr73ZuZtM55545uvIQA0S7Q6ZkBVDJC7LLBOGm/jJbrR9LHPKM5Oz7OoNFnMyCOmQX6cgzuvpkVDKOowoKvEOp1jMYA/FcT3OcXcJzG8zNRQs5hztv28OAA2EnERs85G/IOLe1B6i0MKgxG1qbcMQphiLB71yRNgPtT4Dclvqd+aE6aeYM7pRgiPs9wnJ6ge+2EO0FcNF6AB+wjzFlS9xXSd05mcBdAldFzPcsZCuY2RUwF5KsxHLz3iwXOzzYWxPZ9Zn4WneoakeRf8R4rX/ePSoVFQsS2+Y7rviiDGk+IWIvAFF89e5eLZ5litXorXXWmhYVQ9dWZxVVnhGyjjF2a9/LCCyYNDSfjQtlbj+mp3m9++yLwd13CDSZRlMvvziWhddC/L6QZ2GuBrmMp12qZyqULvEl6EiQregxtYziD8DOZ9V8/9FgZP5V707cxnQb0oGTR/FR6yvAzejQQUkPQJikdyStxHcR3fGuo+zcFj+KCFkDssBto7mfqOOyuYv/87NmWmjRZ/W7zvQcVJkDl4drmiEaC4wEUeBex9pomUGw+U+bQHu8O1LxEejQkMS+pWxs+P/Elm3Gka8zOY+1ANc64ku0l5AWHD1tq8l8pu9lIs9xFn9RXLudhifLHqN5Qzr5EYnx9UuO8AxfatgmstbNn1kt+bl+pHKj7HKlbrY8VrzQlnieUVrzVnSfjSpp1cI8bkhaoTxxo2XitjBnXapfCVGPSoc1Fcw19idppqEiZ2eW3Mu9Zop2BV4b58RmJ8zKIsneXO0VNEvIdxFrBBcaC9iVnHmpUQFXqOEDc0uAbSSGxS6OzPs9zHU3jN0WSOOUsUHigaQOow+8NKz7UwIhQzVFLMJM4RgnGAoQ3sYnmzMy+ShNVTzPqw2YD3j4JrKZbpGyGiSIh1YtnL12st+tNMh5nb98w+zipJTBK+E33ErdAyG5jh7L+NGUVE2xlhGDyzWM50GGdEG7lUeA/sgorNQaELRPusLNpoSYlhOm5hqK8XY8N9zD6f3ccW9XWNMESPO/R/c9D+fiGeSGgWE5OjdsJoZjF3aWPOVtxp47UKnFHpV4b4dy0m4m69LudZeIWMZ/UVFe1rMMuZesFM8ihTPsGnJY4GqwON3xVtu4qD1828sYJWfqqJclJ9VmDZyaL3inaYxJx3ylsdKRZM8mXzySAxDuLCPFmi0IRHhVf5Gsmki8aIAxYTrYrC5svGgsYW366CGAuecBgLJrDch1pXFG2OxoKbxXc6ZrC/0hQPlwvX5RGmfsSCE4dIXGaTmTzDsF1cVBdmHdDbXRgcWm5ZwnKmKVjiwktEnWyzxTM2ijJvMxibk6I8KgdBdjbdbzzzvuTW06J8JwwG8TvJta0sriVxMIv9FyMXMOKDmL/bqaMNF4rJQ7KPfYI8K05xG6XEN05lztuBadnuM6Z+GOkfLPe27rEse9PJPJPnJ0bce7nFgB/wrNnt+tlo8d6phknXDZJZseydZbvEulv8/rBhEiSb9Ta3uJaWcKcKD56xXqjOa+XjflFW1OUBhzF8gDBEwU5uBpruPZh5W5btazEp7S3G8BUmmxEvnrNE8o4fSRwUZq/JGYMxniUp4/0sd24/um6S8GqlGOqXUpuoBFtfZHq3M0w9EaqKAJwrETnnWnjxjDwuGbsqMvlmnk2SSZrTWNDIpY08KL7bWkNdZopJ2b1OFbZCGJFUcbEdUw1MFkwSH+yMGDhPC5EmU4crbWblNLv4gtnvCGhoMSuw4wnREM532XjuYDlP0jYbtFjhDrzWRSc3LrFQ3QWT6X4Es87BQ3EJFOtQxqGjrZHUWbzwZtzOwp8gMdI8VlNEm04V3131SB6zkUkX94kRwtepXgOe1/UunnFEtEmng7VrsNy7/8wi6B/hgQvMzL8wvXuaEDk/2rS1QiznUReBMtJz5wtPYAGJ5zjLQgDSrq2JTL7LaIjN+8QJI3qZQ79YYPONM0X90oy2Psvb3G95DRK2q4SRN9uGFDGGnxYTz8Ni3Ls8iOcVMXmc6P5ed9DdxHLn4zLbH+pzn4vJeEELD0iGEJW9JH2tjkU7yhIiaQSTL6GRSOlqIc6MZZwnvC+q6XLM8Y/kPAgmTcY6U/+SJQ+90sITnSXaB4mylyTj4YOSsW6kZILGmPUJH8axQBbqcokQsnaJek+Isegh1W9wpXC13S0G4Jo2vEf85i4x0N0pDHFlwZvEckVFB+HxgpiRDBSC4E0hapwKGzjTh2bU3cTSy5/CqzROzJZaio9WgXkPPL1OKFjqDKPEwP27MAwXuLwXddJfRSN8RSjdYBr37cJD11d0RBoMajN5ri8jygnDOEy823AhQj9m6ud85QdcJur6HjGjrCtc2W74oOg3lZlaXp5bRFs2eq1SxKC/SzLoBviPwjesKTynW4Tg+0d4aH4S7ai4xezzC2FQvhZ14bQdupGY+dMBz03Zf3minPojeY6/EteR9+57YRwuU7i2mrhulLi2sShrGcXvTf3nS9HXh4v3/UYsYVyK7vDvWFbJwk7UEDbhdmEDrhWe32AnaNQW24l29z9x/2BiDm8U4zp5Y0+J9j9ZfGereMYLxO8HiP5RjzmHgJQSk5NBYoz+SdgN1YSfRYU97CvaMgmFfqKMVZna4c9GVBb9t6Eox41Bfv+Pxf1eE9/9XIfv10S8w1Bhm//H5MuBxpWD38S1Q4R3+WlFsX6Pof5oLPhUlFXVRpYR5TaOBbRD9RmhlfLNhpbAjj3s4AGiGU+YZnnpYmC5Tgy4xcUATYd/0/LeQWYf7+Jk1AKxRMXFvbErFMhPKCJEQXG0fQAAgLMX5Om1Ct6UzdLLiRmk+Tr682WoUgAAAAAA8jPas9zHXqiClqyM8Vnk/aqAKgUAAAAAIL+CvFPGTQYUMHmDy3sYj+ahoM1LUK0AAAAAAORXUHC4MQXKTA/3+MJwPSXeK4RqBQAAAAAgv8KcC2agy+sp+asxH08DVCkAAAAAAPkZ5GUyZginPEKq281phyzlzgrkZKHYq+KoUgAAAAAA8jsovUIghxWlYPiQOacWoezElD8tkBOLUjNUQVUCAAAAAABke5uMB4ZSJmY6o9Dq/LJzhRhbwXIGsd+HagQAAAAAAPgPdEwTHbFiPFuMjpeioxgoSzClZ6AjWown0tOxOpRpH3mtAAAAAAAALEBZ099i2WdvkrAKnGkYIP2ZlgH3s+wjGejIEewMBAAAAAAAUAB5o+jctqc1Pseyz7WqzbLPbYOgAgAAAAAAAAAAAAAAAAAAAAAAAAAAAAAAAAAAAAAAAAAAAAAAAAAAAAAAAAAACBsoI3RtEARBEARB0BWr2omr59l/2Z9BEARBEARBNW6AuAJBEARBEIS4AkEQBEEQjC5xdbHGOiAIgiAIgqAr3oXQfQAAAAAAAAAAAAAAAAAAAAAAAAAAAAAAAAAAAAAAAAAAAAAAAAAAAAAAAAAAAAAAAAAAAAAAAAAAAAAAAAAAAAAAAAAAAAAAAAAAAAAAAAAAAAAAAAAAAAAAAAAAAAAAACB/o4DG8hov03gOqgMAAAAAACA4vKjxhMbDGtdrHKPxE43Xo2oAAAAAAADcoarGkxq5ickaG6B6AAAAAAAA1FFG4yoLYZWi8R2NhVBFAAAAAAAAaqA4q/YWwoqWB/+H6gEAAAAAIJwoqPEGjY9qfFnjhxqbaGymsYXGNho7aeypsZ/GQRqHaRytcazGiYL0/yM09tL4u8ZGGu/XWFY8I5SozrI9VEZhdVRjPSG8AAAA3KKoxq81Ng0Dv9NYAVUOAGcPrtKYynJ7ffwiiZwhQgCFAqVZ7uXA7Rqr4dMCABAEaLfx6RCOjUZmaKyLKgeAs2t29o3GnRqzQjh4kGeJvGDn+lz+ZoZy038XC8EIAAAQLD7XuENjJsQVAABecL7GzooDQaLGLULIrNaYoHgdiZ8ezN+luloat4n7/6HxAnxKAAB8RCmWHS5xBuIKAAAvoNioyQ6DQAeW7e0qLH5Pu/BKaHxd40bFQeRtn8tdUuMjolwAAAB+gyaEAxzGtpVibPuYZa8G/CzGy74sOy6V/j1GYzrEFQDkP7zuMIC0lFxLweujmPPy4h6NF6KqAQCIIrzsMK6NUZi8XqTxPvHbTIgrAMg/uC8IcUUozrKX55w8WJ9F6PvTAFiYYZchEB6Q17eixts03iVYmWUf4QRPbGThriDFlRE0vvwmRBXEVf4Bffcyos/fIvo68UaNV2g8D1VkiWJiYnKZgaWizU7faejwXsQVoZzGAw4D0VKHinmeZQeShoJrhQi0Ah2fs0v8bqvGTRrXsGyX/jKNCzTO0ThN4wSW7akbrLGPxo4af9L4HstOQ1FG4eNTh2qusRvL3lU5QsIB4hmvK3yDezS+ofFTlh2Ua+aH4l2vsLj2enHtFxp/ZNnLG7+y7A0JbUUZumjsqrG3gT3E37dj2ek4vtX4isabROdQAXWY78S9BzrUx3CWveRCOc6e8zjQUeb+Thr7OzxriPhGzUUn9wpqd1U0/qDxL437WHY+tiSNaYIU20O7bLcLg/0+y96k4SUR7vXi29G3GapQl7SM9aRCvdXR+JaYJFm1r4YsO8ecua5IME4NUb+mvnp1CMfGK30UVwTajTjDQVzRBqCXNLZi2Wlw/tQ4T+MSMR5ZcaHGWRqniDINEH2ksRgXioWwjugZtHt7oxg3K/sgRqhe3jG0ra/E2BLgR2JC7PXeKu3Y60pLIdFu3hJjDNVJnOjziaKvExNEn6dl4w0aJwlb+5jGi1nw6YxoXJ0tvs0sIeyLBHnP6sIm9Bbjh93YQqmbKEVTa433unBy3CnGZortptWugyz7WLsAYzVuZtmhTD+KcbW4ZBK7OoSaQimfJs2gU4MUV0x8PNlAdEzj5ZLr67PQ7dA5xewPda7F/EtNQQ2gs1DZsgaa5PK+fyt06DVMbYPBNxYDTk+f65u+43LRAJ0GCRIDyR6e8ZeHwaGwENpunpMqPBhuUVII2hUe2zUNwJRbrqbL2dqTHp43VqHeDiu2r1ct2ubcEPVrajeVQigcyjB5yMMYD/d82EFc1RCC2896WsBCkxqnoDA0xmf9HuQ9qa3tVmhn33kQIEWEHVJpx695EFVPCDGcFOT3Ou2DSK1lcprQOHZzkPds5fI9qB6bKo6VXTzYgUwxvla0+dZ7Weg2pCjFkd/i8FKq4uoBZh24GSA1uDscOtVNwtD7LbJk4oo66OMKRtdNmXYKo2g3e3pICCaVnGHkUTpfof4vF160RJt7rRGd30rpk2u6kZgt+FnvaUJsFnMYoK8UZT+j0FmXCwNVyuMAcblo00kKz5oshFUBl4Pss2KG5Ueqk2QxSyzvwuCRF3iL4mSABonSCvelAex7Zr9TeK+4l9XS5gXCU3AyysRVSYex0Yu4ulAYOjtxRe3nOuEdz1AYk5JEv3FqawmiXfi5rHK7xXP3+rDUdZXwmCc6TD6e8nDvq0U7PmVz32VC4Kp6eQqIMWK2g/1zy/uDrMNOFvcMVviSDb1beEqd2ttx0eeLO9yzvBD/VvfLEGPGKYn9TRUeLytcIiZ7h1keiasbHRqxqri6lslTNKh6AAqK5Qy7+5CLtZ9wP04Qbnb62OvErCTLpbgyzlL/kTyXXNO0Q/FN0UjXODSww8IlL3veOgdPXy0PHeBDi3KlKt7rVonoOCNc1nVEPbwgBqnpLHe2fLNIaaw4SH3h0KCHM/9Sb3zu8P1mK7QZK1d0V4nnIUnct5uYBXYWHjiV1CYywW6FKxxmbilCpLrFVxb3Oig8kE54y6HO54ilsNFC2M4WYnq3TZ2GWlyRSIj3WVwFjPEDDpOmIkyeKmeQ6NO3Cy/HEwqCLN5hgusWdqsVT/t0/48cJrX7hRD18g2+tbgfTYgudell+9Sh/24R3+prMVGmcbOBWNaaLJlQ1gui3uy8NruCmJQaUZZZn+trFEVPKd5nhcX1JFIpRORBjdew7BNlnhC2PtOFuArgEYldyxD9eIj47xQxDq0QdZgWjLi63qFxqIqripLZABcKVDU+orpkkJhj6iSB9BBFhEq+WhiAAy7FFRMiwK78T1p0rGccXNibHWZxn0qu7RFEw99j4QEroXj9HMnMt4SNGL5JXGdnOGmt/GKFZ5PXI0YyS/czvoa8Epsk9e82putC0fmt6uCI8MxdynLHURUU134iBj/u0IdquyhTa8m95jFvMRg3WowXyxQ9IvR9F0sGuXoWfbuwuO4CMcBONQywyWLgDaW4OuazuHID6jOHbJ7dWOK1lI3DM5g/x5ORkd5q84zJPj1D9v7GdBhlPdy7soWw+c7F9cWE+M20mVDOF+K3qIMjgezmNIv7PBlEvT1kUy76O7/O3n2RybMDOI0HhcRkwGpJ9CWb9kNjwQcmoaQirgpJVopoknmzhZ4IjDvnC6E424u4us6hM6qKq2oOHoxNTD1AtxKzP4ZijuI97jV0HlVxdZ9kplTf5hpaVj0hee93HMpod11Xj42+sDB2xnttdHF9e5fiyrj0s0AijB5V9FrOkdzjSp+N12hJh6vi4j7FxYzH6l6rhCBRweXCOyfz7sS48NY8L7lPryBEaZzpXtNcXN9RUuc3KQq0IQZPYCjFVQkxMckrcVVWeGdUxZXKpC1RsZ6d8KBkAnxS0ZOp4mFSiSUd6mGicIGFcHtG8dqCwi5m2kwSWrmYzBo93sb7PB9EnfWX1NVEn4RvDRZcPOwNzDrW+ReH8tH7NWL/LcGqiCsmGZ+N4sppojUnr8TVxw4doLmLD3eVZMY4x0UjG+hSXN0oEXXPSq5r4uAhKCip+0SfxRVhFsu9xKWKLzyKK0JViTBoovjNRkvEVTmfjVcnybtWctHO7AI9F3iYVVNbacfkyzuLFI3JvRK3dqsg6s28fD7SxbVfS4y+6pLMTcJrlci8LQu5MXpHfBJXlwmPvJujusoKr69bcXWO8OjYlbuhD3Uz2GG8/8GnbzCVqQU2N2fu4skKWnj471O89jmb/knl+NHje5LjYZDhXq97vA/FGcl27pMYqeDDd6kiecYQhes/tBGmlyh+u4kuxdXwIMUVobZBEIZNXJGLdLHkHuTZucbFh7tU0kDmuLhPdfZfQJyKuCovmanK3Kn0bseZfVyAXYO5QjJ4ByOu/jTda5yLa98KQlwVkBiDXxSf35fZLxtd5rPxtBNFFJtyreI9atoI5ENMPQjdqj8NZMHvZrqV2cd0fB9EvS0y3auvi2s/k7Sv4or3CGyzPhwCwW1+ziEfxBUZs23C+LoRtRcw+2Xyxh4nSYFTN4JBaea8624H85ZKxIyhTC3AONVhAmwF8yamaoriZadNGca5aMN27SRgf97zeI+XFeqqqQ/f5TbJ/Tt59GCfcPH8h4VNUBVXvXwQV0WFsyRTVVxdy+S7eFTE1asSjwX9/U8uZxUXSYz0HJeN4Cbh7lXp6DJR96LkOlqKW8fst9XaLV1cLHnPYMTVGNO9Bru49qUgxBVhic31vyk+v7tEXF3C/EVzZr/TRcXDUJBZL4VSWd/wwYBtlvTLtcx5V9Y1konTpz56Rru4uLahRNC6AXkW6/pkwGXi6mCQ4orGvX4ePYYU77HXo7iqLvFa9guyXt5kajth/UiS2oep7+AiYXK3i3ubx6pbFa75WeJ5rejD+94jRKLX+NIZCvW0iQW/o/Nmyf1/Vrh+ELPeXX6+4vMLi/b1NMveHOaEzj6IKyae9bjq5DtYcVWTybc6Lmbu1p8DM7Z9PokrN5C54V92uPYvZr9d/GbJe+4JgbgaYbpXHxfXPh2k52pnkLOljhJxdZHP3/s7ySCt4hGpZWNk/vbQ5q3wBLPPwZYlOrmTJ9Zut9sHPnpG27i4toFNeY6wyEMJJl9icRJXJJC/Nn1DN+KKBvLdHsUVrUgkhcBzRcvRMxXFznAWfOoHYywSeQxGOgi7XS68meb8a05LzKUktq5PBLTXG5h9WIt5N97DQT5LJq5UQkDsVig+Z6HJwt7OJ3HlCl7FVRExO5cFfG5m6ssr5kFpdx6Iq/Mlou5Vj+LqmMQLcj6z3yEWjLgaHsS9ngpCXFWxGfhoRvKg4vNbS8TVBT5/b7tYORpAnZYgaQAYxUJ71FNhCy+Rm9iGchJx9W4Q5TIfd9XCxbV2Z5nGRaC4omzp+yX1T2kiXjCQJmC0gYV2K9OyrtVuulYux8FdHsXVXRJh/nYQdXKjSbRR+VZKJinBbkLpbDKEtLqw0EE8zGVqudvMXh6nsr4qESv3RUB7bcpyn4qyzabMI0IorhopXN9CYi8fDEHd/BaJ4qq3eHhl0YBeEQXdxOx31pGBpR1rFTyW6TyJB8RJXAXO8KL12088iCu7GIc3HAZhu6SN65j9OnxpyXsGI66Gme7VPgzi6lKWe5digKOY+m6eVhJxVcbntv+lRFw5BVdfZuPVoD5R0ccyPimZqZMgKerwTex2sr4VRJmGMO8xHK/ZlGefwrUVRD+bG0ZxFcfUl6VU6FZc7fAgrmgM/IXZL79WCKJOzEbxS+FhDdWZsl1YzlWA4kIExTB5TOIQhTFnkum6yx1+b7fZZqeimAt1W91kEg21mf0yJgnkYFYCZOJKRbw/w+QZ6t9l3o44civmVMQVOQ3Ws+z0Gq5yH17D5Iny3JIK+ytTXzu1QgnJoOIkrsoYXLdfunyuLIBUZowelswSf3NwM28PgbgaGsSA7lZc0UBOS8N2eUSWuuzEv0rEVSmfB6QvghBXj9iInj0suKBWKwO7TzJAyuJEKKbvuEdPrAx9LQxsOMRVc/HbFWE0WLF5KK5KSTwPMnFFaRDsNsoEs3xV3FSeZNG3z2P24Q1rWHDLPF1NtiXQtx5k8iUwmuQ4HZFjjk291OHd7ZJMT2N5D3OIwnwhLqsx+1MGPgniebdI6l5ls83FDrojTXz7Ej7VT3OP4qqgwVO6Lq/EVZLwcl3jQ0V4EVfFhWdticdB30lc2eWrIuO2XzJLlO0Yo5xBW0MgrsyeheYurq3P7DO0U1bp6mJG9IbwiK21ERnUaPt7EES/SMRVCZ8HpM9tnkU7xJyC5+1mQpT2ws8ga2NKEasZuiwT8oXMflfXi0GUybzzppGLa191Ka4KCI/CF+y/nY/hFFcxeSiuSko84nbiqjyzzw21hbnLQG4GndCQbvJIO02K0pm7kwXM6G4yuMaJy3tMnrIk3WESYfbwyyaBlzP7naMdI0BcDbXp30UkE99VzP0pFCri6mXFca2DQn9ZzdzlHLTDTx7E1ZWmiWSeiasEUeF+DWp2Hp2NwrCT6m4mGvY4MatICWJGTSgrGUzNW2OLCoW+XyIGvlAQkVvCIK7cZB5+Osh2QB686UKIeXHrtpDU5zk+D0jBiKvxzP4QZL8DMj+Q1PdHkuvIe2wXE/mCj+LqHRfXvsLsA9qpTO+z7CDwNsL4LbEwapEirkaLgZlI28Epr9gzot+PtvEauhFX5BHarCCuCoq+UVeMj3YpYe4Moi4KmsQIeYaMWcSrMPsA+t5B9Ikepmcax4DC4t9lAe7HmP2h1YNMv5XFdF7H7E8yacryFiT8jLtaD7CcuwF/kHiHanh85q2SOlcdWy5h8h3Rxt3bTZi3EyUC+FEiwFsLW0D8Vog+8kaaNy+4FldOMVfjxYDYjzkfTDnHJwN4jsQd7oZexJXdMgBtIa/Ass/W+04oaln6ia4K4uJciavZz2XBJi6uDVZc0Xf7WIh2LwPqzxJxVcznQamxRFw5HddjNxscGYLB835J3/tKcl1pZr889HwQ5elpupebhIev+NCvI2VZsJ+C8ehl8q64EVc0+bI7ommtEHBESrS5WzIe0Y7tYM9gJAN+ytTPjV5p8taulPSnS31qa+dY1NFsh/ayh1nHmZkzmZdxEBN2qS2asLzF+0y+G7SSZPzoHwJx9ZzL++xW7PdTmfekwc18GHd8F1e/GmYJLZj8IM0M5s9WykgUVx+J2bTTSfXkBfxGUQgUl8w0uwVRf2Z3t5ug0mck35Zmv3FiZnRMMlMN1EMv5j43VXPJ84v4PCh9FoS4shsQJoXAc0WDo10y0G8cPB+hEFc9mPclxpfZ2SOuVDJRU5sdFYS42hhEPZ0Uk5XzfKgL80TEKpb0S0lZvCbFNHtJrd6FhNMOh7pYYOGZ6m36TUlJOe6QiNdmeSisCrGcoTA0JpuTodIqy3KJZ89LYHtlSV0/42F8W6fYpvcLB4DbI3yaRrK4YkIwzFLo0MHOkmTi6oAQDxNYdr4Vyha9wcaIuBVXF0oGU0q6eLtEXB4U3iY32zqLibJb3a97EPU3nKkvHamKq0OGhlVU1BVl6W3E7OOuuHg/N3F4MnFV0OeBSea5chKFdsvBy5m/u1wIV0qWJD5wEAd2eXmCOcDVnOjVTWbsVyVifKyBdPgv7QqkZfPUPBRXst2CoxTvU9UwEXErrjZ4NAQUxOxXeoBiwlNv7ItW52Vex+yDp5cxb7GI5iSidjGc90r6iDHvVkFJOy7h8A3t7tuF5R1uM9mkFTbjj11OvyzmLeedLEP7Ux7udzHLHc4i2zTX3OVku6nErtCEeIzwjNGYs0p4O9NCLa5aWajMww4v/5cYmEIhrgIB7QXYf6dXFxMzGhI/gwyG/ksPH9jOaH4unkUf4h/hiqZgt6/EIFbag8eiiESxByOuRgQxa3yO2a97nyv5Xj8x+4O7VzL1HFV2y4LpIRiYgtktuFNy7bk+l9NOXGU5zBKLMfsg3GDEldngPeniWrs8V+bDxQP9m7y7lK/rB0MdRIq4Gq94nwLCm0ATtDo+iSsSna0lnsksYVD98KLWNglcGrNuEbYgQPJk1JJ4dEl03ePh2QNM95HtQn+b2e/aDtTJjwaR18X078UdPDV2S2tT8lBcmQ98HiuE5m2m7/OcZHxewtyHXNwhqecnPL4L2de3mNomEhKU/V2InWbMOaC9oChDUdH3Kd1OQ/Zf7KRrceV0tqDVTOtzJg8ipBcPJr+JiriSGZR/PIor2fE3gdiW4j56UOhD2u3s6RHEfc3JLRu4uPYFm/KccpjZFZJ4nbKY2pEIMnGVGoKBKZgkoqsk7b+Sz+W8mVkvwSaLQVQm3u2Ob3kuiPKYZ5iPuLj2TWYfq+eE7/JAXMmSiE4Jw/PtxNXv4jePMPvl+QQfvFfm43uCYVcPYs8cP3qJw3jqtAON+sxL4vfm38pyxlF6C7vUD1tDMKFSAS3n7fXhu6QLz5wbyDx59YN8rwrCk5SpUPZ2im1KRVzZ4etQiavWNoP2SoeXTrRxHasOKts9iiuq6MEexVU5yUz/uxB0jkImd7uRPYO47wTmPu9IAHZnCyYx51QI9D7rmf2yj0qivRaSQdFvfM3sd645HaExioUucaIZgUNKZUu1VijIvJ2V6YSJpnu58cbYHX+zR+Ham8RgGCnialYYnm/Xn742jHe/ScpIHq5g8sNdwJyX21R5mLk/ZcHcz5yyqJNtcjpfL0F4d9qY/r6wg5CJkdi6m/JAXL3u03cJ7Oh0g3sk93rWh3ejdv08s8+fZpx0q8R4/RCEuKolBKjv4souu3ddZr++HuzyYDDiKtARKjP3gXrlJW72UAQtFpB4QAYEcd8ZQRhS2REPKoGxjVhwgY52ea7OhKD+v2X2x3Zc4bGzBtqon7mu7DxsYxWutYshfCuI8piPH3HjHXmH2QeqqkxGyCt4LQsPzmXyswXnMv/jAFXFlTHNy3nMPl9eYAz3Ws6GPhpwp5MurDCOuTv/LzCOb3Eox1bDJDyw2lLIoe0tl9yvYR6Iq7k+fpcDLu1lDcm9XvTxHcuLNiDzYi1W8F79GIS4KirE8/Vu+9ENDjOTrpJZsYq7+Js8EFfBuCPtki42D9Ez5zP74Euvgm1hEDMJ2WxIZQZ8G7Nf2/89CHGVEIK6/14irsorzGbsOjwtH9zuo3dzms1zXlG43s7IfOqxPDS7N8ebuYmleY/Z71qKNJRg8vjSRcz/zQuq4upz028fl/Q7mgQ/5uH5NEs3r1BQqpEODpSlRljoss7Mh4Sr5lKkvFsnmPNymPH/nSZE7RzaQjhxo6n8NGbRCsXLEtLE2W73KYVuuDlv9H5JXbzl87sWFjrCbqd+poIwDEZcecZNzH6bN3Gg5NpyEjFijNW5w8Og5vX4m2BwtaRDtgzRMyfbPG9cEAbB3IHc7N54U/ItL1S4/gqJQRqocH1LZr8L1W80kxh6p+UHStshy8/Sy6cyXsWsYz32KH6P5T6353Isd2JSNxmUG0q+byi9QF5AHqHjTJ4SomiIxdU6RXFFBmi0pKw7RJt1A1ruNe6YOqTY5qg92AWWU3jB3S7KMN1jWysgJoopip6bVAVxdS+zjzVOZ94C9r3CLPSGBTnmBYSv6g68B5i3xMZeQWNDK0n913K43kuG9qBxC5Mv7zntiPmMOQeeLWbucq2UZPa7sbwc2lpcDBROZbiO2e+cbB2i+u/n43sSrrUwxo+6uP5tyXe8XOF6CgS3C6JWSVjX2ubaEx5nd7JYiObMfmdkBYX7d2by7cI3+tA+7MSm6gaBCT57Ruuy3LumKru4vpHEM1ncw4BLhvqGEPXNkkzu1V/PQhvILNstaBVPeg2T7/zu69JrNMrCgKsED5PHa7WkHG7iSc1esHtdXFuA2R8Eb+XdcxJXsg1IgRi8YM8Vpd2Q5OGvJvkNCVzzeaOqu39vkQhfsuOqge0PSerhawWHzuPM/QHitHJi54l32qDzi2Sc9nKyzO0se5lQituYfPvqMoUBYLFDw80SRkJ1p0gZZh/IttCDS3GgcCk67Zq7kdnvCOkaogHUbiax3ePA/R1zt6PMjHcl37GiwvXXM/sYvh8Vru/E7Jfq3OBOIZISJaK6rcTber3CM65zmBnPZMGdh0jxRVYxgPtdeCHaM/sM315OUzDfj+rXTaLYr5j9Umppl2V5W7TvDUyeADIYcZXs4A0qzUIH2dmj39qIie8kk13yQqkmjyWP6RmT4XWzw/QnJs+FqBrYvtR07YMevH/jFcTVGaYWJ/k8s0/JQHXUOIjvXcAwYRss+V0Di7HxchfPWO8gwFVQn3k/P/NLoQnmM/cpIHrZPNNp2bu1pE9UdlmGh8W4t1TFCMmyjh9QeNi9Cu5Xarz1FAtPytxuZ8Yq5m47bw1D2ZxiVO6QCM3+IRpAH5Uo6tou72V1NuIYl7NVWQDrrQrXvyhx3arkP+nB7HcauRHUgQE1SeLq7iFpq7cqDlS9mTwlSQuP7aK4EGdWSe/ecnGfVyWDitsDUcuw3Lvn3G6vby6p83Iu7lPS0NZpAhiK5bkyTO6VJ+F7EQsd6Pl2S88tJbP7tZIyk8fjCoVnt7AQRG6WFSs72ANVEbLRo4fGCMpf6HSG3WlFcUXtbJLDfR7y+L2rGjylfSXeWrPgnMbcbaBpKSn/IcX28aLkHk5phJ4zjGUvuawjO0+k0yaXThLHj5s0FOcYnEnznX5cx6HRpSm47+iDd2Dy3FeBOBEVhS3LN7XdxSz1EsNAk8Kcg4xrSt5hYogG0HOYfYzSChfeq8IWhj6ZuQ+s/lDy/eoqvIvdcsAxprY0PCgIkR/AW4YJg2wnyRhmn7X3XhdtTLYziWa5TVwKXDKQdtmKe7u81+XMPi5yhov2VcRCjFK7vdpl+7ITtDSpqeaiLN3C4FW+ljkHRF/DQoeLJd9OtnW+tsNkd4qD15LatHmX6RIP5d8lKcNmBa9fUQtx+aHHuryd2afZCXirVQXKlUweb0ke80dclo+WA42bB+y8/HUtHABuUw7Vcpg0fK44xtpd77SL+S72XyzfURf9nnSGVYzyVuYcr9mTBZ9RntrHDwaN0NHpgveZ85KeShJKmsGpnAc4njkvR9CAHc/sc4rcplAJ97CcaQ72Kcy8XpCUezkLXcDttxJRN5TJDxQNDEI/Wbire3soy8eSOvjCwf3eS3LtL4qdZyazz5NVzsGLROLta5YzTuY3SRuRLWe7OR/rPiaPdUkTYsBptyW9Ay01zrZpD/OY++WvAmIQsPOsDVEo17lCwJjb148eyjJRMs58onB9WSHQ0gzXvRKifqlyyPSzLHSoyOyXoP5yGP96O4zp30omHV/75Lkf4uDVfVNh4mIWRL8HUZ/PMftVmniX3p/7JTYqcL9PFD2qV7Dc6XNetxnnZ1hMBO93WQ/lWe5NKUbuVLDRjR1spZN9P2FyuqjEPdUT9t/cllXE4BhJedsojjudTcL2VdlFJZg807Qx7krF6/CAxctbdezeTL4r4VEHZU2uYooNelCocJqp0TroG8JtuNLiepXdd7Lgx5gQLgGcKxEVgcZOOzBuFDMcMrAXiD+/Kb6P2Rj/zdR29pjxjaQcR8WMpaxhYC4rvtcSJj80tYzCsy92EClHhUh7VHzzx0QDpzie4RYewHRmv4uEBm5ZgshfXdbbQ8z5WKi9QqDeavAYkRfqMuFB7s3sY/6mMPcJGAMgD8E6Sbm2C1FdSYwJhYXgulkMottsjLvbmK0SzH6jSmDG/72Y9dcykJaTaePMKAuDlsScs+l7QQXmvJQUOKi7UIjGhWeYPCGnbDy6wKH8tAz7pI1XxsrD4+X8vF8c6m6Hg7C/18JLE2xusZ9sbMtxD9+xnkKfJ08+nd13kxgDC4qxs5RwEnxnc4/qFs97x2KcT2POaWOsvGS7HMr9i0M9yzxBJx084iVY7szyR4Wjp6TN79+0sQ3zFbRJCYe+QF7elqI/BMacukKMfyG0wymLd7zWbmZDAbtTmdpOCvqgfYRBKujgefiWyWO4AvcbadEoCgjvxBrFcrnh+w4zvfIOrl7qkJ8yb0HAqss3S5l8aTVBCIIY8d8Em99vZ2rJ9syzImpMR5jzmU4HRGPdIv5fFuD5l4LxKyDe/0+fv/luG1FHHb+pQ13vEobGzUB+h43QtfK+7hPGZZcYXO3qMEN4DUoF2b5IiDsdApwgyrVLLAudlsxMy7l8/jnCyGT5/I0X+NwPCwvhvlXx+enCq3eFj57tgmKsne8whnZwMCw1HbwrZNBqGCZKJcSSDrcxYqpxbQEv8iwFO9DdwhAXEEZ2kE0bfZB5zy9GsYyjberCrbgKnBm5RaFdU1+KE5OLnaJ/JUrGzUtNz6lhMzani2U2N2W+1WESGxDfr1q0afpzFYeJaeAMR1mw+jKb994pPJ7NBHuL+rXSFFuYc1hCMSGoM3wed5ZbtUHqQMOYPLeVbGbptM2ykOgwKucC7WD/7TSiwf8PZr+NPxgmMPsdTfRxpjkMQsaPv0HM8kOB0qLuUjy+Z6ZQ2W5nMu+Kxu5nA4wV7lonMXq+GEQPheC7W822v1McDANxYuOER82Nd+Yn5pzAUDX3ThPmX6LKC4VhSfdYHmof/Tx4RBsJb3NGCL5xI5/7YA+P9RMvvG7BHpR8qfDQHVF87jYxUbDDS0y+G5yMbGthSFc5jC3zmfMxL4HjeHa5qLsZhslDYBlbNtFNEpO2yh7rmLx6ay08gV49kBeJJaMkn9r0fvbfLuMCQqjIxpN9wqZfqjDWDma50zjIPDp9DGM4rRRMlky6zO1lKbMPrwjmvMpM4TEu7zBBaS3adFYIxp3GVg+9IcibrlKcHTRl8mN1Ai7NmuKaN0TjDDDFxDQx6AWYaaBT5cl2NL3joQ42sdChkJilTGHqZ3pRPVOczlPM/a4pet4EMci6ZbwQ3EeEKI4RA/BnLgzwbeI9E0SnTRS0agupFt9fZuyus/CexLr81lnM/SnvBYTXq5XwgJwJYhBZIGamfh4W/qBoL2cU3z9eDGZ1PRggao8rDd8y2dSvU039OsPUt43MEL9JEW3+bwWD4nbZMjGIsfGYD0uEj3qc9BaQtMWXHdo9eaEn+iRmSzB3ZxGmi/YV2LF1noMYDPb0D6Mn9x+D7TgYZB8rKDxC3cU4mOayn58U5SFhebfhexZjzkf5BOrxAYcy3uqhbZ02rDz09nD9IJuyVBWrVzEunAnU5xcLwVZMoR0eCGLccToq6EK7h9YJgtVcNDiK4aCU/D8ILwKdlzdQsKP4t8CsvKxYVgmwinhWgNUNpLX4+w2sZSrjQ2KQIj7C5LEJl3uog3Bk4i0oBgAKbGwhZtSBuuslVDmtBz/LPJx5ZFEH13jklaLzlWXeEugVF+2kkpgV3yJ4m6EtBNrAXRbfP/BNHhbfm9bN64tvVMBGuLr93hcGUbfFxQz7WfG92ohlvnFixr5IzKJ3SyYJZ8SgfbmP7Yvq4naWvVmFRGBPQ/vqKf7uM1GfVwfxnALi295h8T2rCUNi7Nv3mfq2kTXFb6qKNn+ez32ukFgS9Do23u+D5+pCj89V6eMvirG4u+FbdxGiubLis65QqMNaLspeQ/T3Qgbx/4DitRV8qOtAWWv68O0CKCPaMXnuZxr6dZZYrflTeG5oXH9PvC/F7xSxsQP3KNTFA8IzJcN5HtpWLYOQqeTheidPZykxDlBM1c9i7CEv3HAhzDqJ1bJnRJ9XnbwExG5gzLnTYdypaRprjO9Q16AnHmXuT5wBACCMKCAGgEJiUKUBjOICjzp4Rpqw0OZWAgDAP5BnNRCfdEhMtgqgWgAAAMIL8iDIjg4J7B6lZK/noLoAIKJB3pbA8jstTZH3ujYL7YHfAAAAgAVo9xSlgnAKkKVgZjoCpjSqDAAiElYnJNDyIAWGn4fqAQAACC9o6YACz41Bt3YB5xTwSsuFFFcjyx9HS5AUZ1KVhS43EwAA/6E5y94pS1v3zRtIGqJ6AAAA8gYU8ElbsWWxWMbAdwqQpwOpKVCddjlSACYFMlPOGNqBSjtuaGfM46haAAgrmjBvhyQDAAAAIQB5sSqw7J2GFBQbbN4WukcNVCsAhA20eaW7qR82Q7UAAABEBijtBWU6p/xXbnLpBBK7UoLHiqhGAAg5KJ0MnVhC6RYotYlxWZDiKSuhigAAACILtNuIcoy9JAQTJeSjrNWUFZmy7VOyPQqapZxotEOJcrmUQLUBQNj653Rmn/DTj2z+AAAAAAAA+QbniMkNeasCJwrQaQ101NpbTL7xBIgS/B8A9ES6i9QnKAAAACV0RVh0ZGF0ZTpjcmVhdGUAMjAyNC0wNy0wMlQyMTowMTowMSswMDowMOjuJngAAAAldEVYdGRhdGU6bW9kaWZ5ADIwMjQtMDctMDJUMjE6MDE6MDErMDA6MDCZs57EAAAAAElFTkSuQmCC;" parent="WIyWlLk6GJQsqaUBKTNV-1" vertex="1">
          <mxGeometry x="278.19" y="120" width="101.81" height="60" as="geometry" />
        </mxCell>
      </root>
    </mxGraphModel>
  </diagram>
</mxfile>
